if (_typeface_js && _typeface_js.loadFace) _typeface_js.loadFace({"glyphs":{"S":{"x_min":55.796875,"x_max":685.984375,"ha":763,"o":"m 55 198 b 363 -26 88 54 197 -26 b 685 280 564 -26 685 95 b 434 575 685 423 605 494 b 249 751 325 626 249 655 b 387 876 249 826 302 876 b 532 786 449 876 494 847 l 656 851 b 375 1015 619 955 519 1015 b 83 743 198 1015 83 902 b 351 440 83 593 178 526 b 524 269 451 390 524 366 b 370 122 524 180 465 122 b 182 258 270 122 205 169 l 55 198 "},"¦":{"x_min":281.75,"x_max":400.171875,"ha":694,"o":"m 281 970 l 281 456 l 400 456 l 400 970 l 281 970 m 281 276 l 281 -237 l 400 -237 l 400 276 l 281 276 "},"/":{"x_min":0,"x_max":589.359375,"ha":601,"o":"m 476 1015 l 0 -129 l 112 -129 l 589 1015 l 476 1015 "},"y":{"x_min":1,"x_max":663,"ha":654,"o":"m 208 -302 l 663 643 l 506 643 l 351 300 b 306 183 333 259 315 220 b 276 309 300 223 291 266 l 160 643 l 1 643 l 232 55 l 59 -302 l 208 -302 "},"Ž":{"x_min":12,"x_max":756.984375,"ha":800,"o":"m 12 0 l 756 0 l 756 144 l 259 144 l 751 993 l 95 993 l 95 855 l 508 855 l 12 0 m 195 1275 l 322 1090 l 461 1090 l 590 1275 l 508 1275 l 392 1168 l 276 1275 l 195 1275 "},"Á":{"x_min":-20,"x_max":922,"ha":919,"o":"m 753 0 l 922 0 l 449 1032 l -20 0 l 146 0 l 259 255 l 642 255 l 753 0 m 317 390 l 416 616 b 451 729 426 643 439 679 b 487 616 464 679 477 643 l 587 390 l 317 390 m 356 1090 l 437 1090 l 632 1275 l 482 1275 l 356 1090 "},"g":{"x_min":53.078125,"x_max":692.8125,"ha":808,"o":"m 692 40 l 692 643 l 548 643 l 548 537 b 336 665 514 619 439 665 b 53 322 170 665 53 529 b 340 -25 53 103 164 -25 b 548 84 428 -25 496 10 l 547 0 b 372 -181 545 -121 504 -181 b 238 -96 288 -181 242 -150 l 83 -96 b 370 -302 84 -217 191 -302 b 692 40 613 -302 692 -199 m 552 324 b 377 104 552 188 476 104 b 204 318 268 104 204 181 b 379 535 204 454 270 535 b 552 324 487 535 552 458 "},"²":{"x_min":19.0625,"x_max":449.171875,"ha":554,"o":"m 449 468 l 204 468 l 287 555 b 447 826 383 659 447 733 b 247 991 447 929 371 991 b 34 816 117 991 34 922 l 134 816 b 239 908 138 872 181 908 b 344 813 304 908 344 872 b 258 656 344 770 315 720 l 19 390 l 449 390 l 449 468 "},"–":{"x_min":0,"x_max":680.5625,"ha":694,"o":"m 0 369 l 0 270 l 680 270 l 680 369 l 0 369 "},"ë":{"x_min":52.640625,"x_max":708,"ha":772,"o":"m 558 398 l 211 398 b 387 540 235 494 292 540 b 558 398 486 540 547 491 m 708 300 b 708 327 708 309 708 319 b 384 665 708 541 587 665 b 52 319 187 665 52 519 b 384 -26 52 109 182 -26 b 701 165 526 -26 630 36 l 579 234 b 381 108 533 145 474 108 b 202 300 276 108 209 179 l 708 300 m 181 851 b 262 768 181 804 217 768 b 341 851 309 768 341 802 b 262 931 341 895 306 931 b 181 851 218 931 181 894 m 425 851 b 506 768 425 804 460 768 b 585 851 552 768 585 802 b 506 931 585 895 549 931 b 425 851 462 931 425 894 "},"ƒ":{"x_min":91,"x_max":687,"ha":839,"o":"m 481 530 l 635 530 l 646 643 l 492 643 l 501 716 b 598 870 516 822 531 870 b 674 852 617 870 643 865 l 687 980 b 565 1004 644 995 605 1004 b 359 747 444 1004 382 922 l 345 643 l 205 643 l 195 530 l 334 530 l 278 58 b 174 -165 259 -98 251 -165 b 118 -150 160 -165 141 -159 l 91 -287 b 195 -304 129 -298 163 -304 b 417 16 348 -304 390 -208 l 481 530 "},"Î":{"x_min":-3,"x_max":392,"ha":396,"o":"m 114 0 l 272 0 l 272 993 l 114 993 l 114 0 m -3 1090 l 78 1090 l 194 1197 l 310 1090 l 392 1090 l 263 1275 l 125 1275 l -3 1090 "},"e":{"x_min":53.390625,"x_max":707,"ha":772,"o":"m 557 398 l 212 398 b 386 540 235 494 292 540 b 557 398 486 540 546 491 m 707 300 b 707 327 707 309 707 319 b 384 665 707 541 587 665 b 53 319 188 665 53 519 b 384 -26 53 109 182 -26 b 700 165 525 -26 629 36 l 578 234 b 381 108 532 145 473 108 b 203 300 276 108 209 179 l 707 300 "},"Ã":{"x_min":-20,"x_max":922,"ha":919,"o":"m 754 0 l 922 0 l 450 1032 l -20 0 l 145 0 l 258 255 l 643 255 l 754 0 m 317 390 l 416 616 b 452 729 427 643 439 679 b 488 616 465 679 477 643 l 587 390 l 317 390 m 645 1259 l 585 1259 b 530 1213 577 1229 558 1213 b 499 1216 521 1213 510 1213 l 422 1237 b 381 1243 407 1241 393 1243 b 256 1101 317 1243 276 1197 l 316 1101 b 373 1147 325 1134 343 1147 b 397 1144 381 1147 389 1145 l 480 1122 b 515 1118 492 1119 503 1118 b 645 1259 579 1118 628 1168 "},"J":{"x_min":2.71875,"x_max":439.640625,"ha":547,"o":"m 103 180 l 2 76 b 215 -26 63 5 130 -26 b 439 218 371 -26 439 52 l 439 993 l 283 993 l 283 270 b 198 123 283 173 269 123 b 103 180 163 123 134 143 "},"»":{"x_min":54,"x_max":566,"ha":631,"o":"m 145 42 l 314 318 l 145 595 l 54 538 l 190 318 l 54 98 l 145 42 m 397 42 l 566 318 l 397 595 l 305 538 l 442 318 l 305 98 l 397 42 "},"©":{"x_min":74.859375,"x_max":1058.953125,"ha":1157,"o":"m 566 997 b 221 851 431 997 314 947 b 74 495 127 754 74 627 b 220 141 74 362 126 237 b 566 -6 314 45 436 -6 b 917 143 695 -6 820 45 b 1058 495 1009 234 1058 358 b 916 850 1058 631 1008 755 b 566 997 820 947 699 997 m 567 923 b 865 798 681 923 785 880 b 986 495 944 718 986 611 b 865 195 986 377 944 275 b 567 68 782 112 677 68 b 272 194 457 68 352 112 b 148 495 191 276 148 381 b 272 800 148 608 191 716 b 567 923 351 881 453 923 m 801 612 b 570 800 793 723 700 800 b 303 491 411 800 303 681 b 567 191 303 305 406 191 b 807 394 705 191 800 273 l 696 394 b 571 280 687 320 641 280 b 424 495 479 280 424 356 b 564 716 424 638 480 716 b 691 612 635 716 681 679 l 801 612 "},"˘":{"x_min":142,"x_max":537,"ha":694,"o":"m 142 922 b 340 743 155 798 218 743 b 537 922 464 743 523 798 l 458 922 b 340 837 449 863 414 837 b 222 922 268 837 230 862 l 142 922 "},"ò":{"x_min":53.3125,"x_max":747.171875,"ha":817,"o":"m 53 320 b 155 75 53 226 88 141 b 398 -26 220 9 307 -26 b 646 76 492 -26 578 9 b 747 320 711 140 747 225 b 645 563 747 413 710 498 b 398 665 578 630 492 665 b 155 565 307 665 220 630 b 53 320 88 500 53 413 m 594 319 b 400 105 594 198 506 105 b 205 319 292 105 205 198 b 400 533 205 440 292 533 b 594 319 507 533 594 440 m 494 740 l 367 925 l 218 925 l 412 740 l 494 740 "},"^":{"x_min":278,"x_max":1082,"ha":1389,"o":"m 608 991 l 278 612 l 415 612 l 680 881 l 944 612 l 1082 612 l 752 991 l 608 991 "},"«":{"x_min":53,"x_max":567,"ha":631,"o":"m 222 595 l 53 318 l 222 42 l 313 98 l 176 318 l 313 538 l 222 595 m 474 595 l 306 318 l 474 42 l 567 98 l 429 318 l 567 538 l 474 595 "},"D":{"x_min":111.609375,"x_max":937.8125,"ha":1028,"o":"m 111 0 l 325 0 b 367 0 338 0 353 0 b 766 93 525 0 653 4 b 937 495 877 180 937 318 b 766 900 937 673 877 812 b 325 993 647 993 507 993 l 111 993 l 111 0 m 269 145 l 269 848 l 326 848 b 383 848 347 848 366 848 b 662 783 500 848 590 844 b 773 497 736 719 773 623 b 662 211 773 370 736 275 b 402 145 593 151 510 145 b 326 145 378 145 353 145 l 269 145 "},"ł":{"x_min":-23.140625,"x_max":398.8125,"ha":382,"o":"m 114 0 l 259 0 l 259 468 l 398 568 l 333 663 l 259 611 l 259 1051 l 114 1051 l 114 520 l -23 420 l 40 325 l 114 377 l 114 0 "},"ÿ":{"x_min":1,"x_max":663,"ha":654,"o":"m 208 -302 l 663 643 l 506 643 l 351 300 b 306 183 333 259 315 220 b 276 309 300 223 291 266 l 160 643 l 1 643 l 232 55 l 59 -302 l 208 -302 m 119 851 b 199 768 119 804 154 768 b 278 851 246 768 278 802 b 199 931 278 895 243 931 b 119 851 156 931 119 894 m 361 851 b 442 768 361 804 397 768 b 521 851 488 768 521 802 b 442 931 521 895 485 931 b 361 851 398 931 361 894 "},"Ł":{"x_min":-43.5625,"x_max":632.921875,"ha":663,"o":"m 121 0 l 632 0 l 632 144 l 279 144 l 279 463 l 502 623 l 434 723 l 279 612 l 279 993 l 121 993 l 121 520 l -43 400 l 24 302 l 121 370 l 121 0 "},"í":{"x_min":84,"x_max":360,"ha":364,"o":"m 105 0 l 249 0 l 249 643 l 105 643 l 105 0 m 84 740 l 165 740 l 360 925 l 210 925 l 84 740 "},"ˆ":{"x_min":143,"x_max":538,"ha":694,"o":"m 143 740 l 224 740 l 340 847 l 456 740 l 538 740 l 409 925 l 271 925 l 143 740 "},"w":{"x_min":-10,"x_max":1030,"ha":1042,"o":"m 701 -39 l 1030 642 l 877 642 l 738 331 b 701 202 722 295 710 252 b 671 319 700 244 689 280 l 515 666 l 503 666 l 349 319 b 316 202 331 280 318 244 b 285 333 307 267 294 311 l 143 642 l -10 642 l 316 -39 l 466 301 b 510 423 474 320 489 362 b 556 295 523 376 539 334 l 701 -39 "},"$":{"x_min":90.875,"x_max":721.078125,"ha":839,"o":"m 446 145 l 446 421 b 557 281 522 384 557 342 b 446 145 557 211 519 164 m 376 859 l 376 616 b 284 747 312 651 284 690 b 376 859 284 806 312 840 m 90 214 b 376 -2 122 82 217 8 l 376 -114 l 446 -114 l 446 0 b 721 291 623 22 721 128 b 446 591 721 434 633 501 l 446 864 b 567 779 499 854 537 827 l 689 841 b 446 998 655 933 574 987 l 446 1076 l 376 1076 l 376 1000 b 116 737 212 979 116 879 b 376 450 116 609 201 524 l 376 140 b 216 271 290 150 237 193 l 90 214 "},"\\":{"x_min":-0.359375,"x_max":589,"ha":601,"o":"m 476 -129 l 589 -129 l 112 1015 l 0 1015 l 476 -129 "},"Ì":{"x_min":12,"x_max":288,"ha":396,"o":"m 113 0 l 271 0 l 271 993 l 113 993 l 113 0 m 288 1090 l 161 1275 l 12 1275 l 206 1090 l 288 1090 "},"µ":{"x_min":-61,"x_max":743,"ha":819,"o":"m 136 733 l -61 -291 l 91 -291 l 156 51 b 313 -21 194 -1 243 -21 b 481 73 382 -21 445 12 b 481 64 481 71 481 67 b 581 -20 481 7 515 -20 b 680 -9 616 -20 649 -17 l 702 99 b 679 97 694 97 685 97 b 634 142 646 97 634 110 b 646 232 634 160 638 189 l 743 733 l 593 733 l 521 357 b 318 99 487 180 431 99 b 197 232 239 99 197 144 b 205 303 197 253 200 276 l 288 733 l 136 733 "},"Ç":{"x_min":69.421875,"x_max":901.0625,"ha":997,"o":"m 892 751 l 901 913 b 586 1016 805 981 703 1016 b 217 868 441 1016 314 965 b 69 494 121 770 69 640 b 216 120 69 350 121 216 b 589 -26 311 25 439 -26 b 891 66 706 -26 805 4 l 891 248 b 577 123 796 165 692 123 b 234 493 382 123 234 275 b 593 868 234 713 379 868 b 892 751 703 868 803 829 m 419 -266 b 590 -293 491 -284 548 -293 b 748 -176 694 -293 748 -250 b 600 -58 748 -97 699 -58 b 589 -58 596 -58 593 -58 l 589 0 l 532 0 l 532 -125 b 559 -123 541 -125 549 -123 b 647 -173 619 -123 647 -137 b 579 -219 647 -205 624 -219 b 419 -194 540 -219 488 -211 l 419 -266 "},"’":{"x_min":82,"x_max":330,"ha":419,"o":"m 82 646 l 166 615 l 330 974 l 208 1015 l 82 646 "},"-":{"x_min":98,"x_max":453.25,"ha":563,"o":"m 98 387 l 98 251 l 453 251 l 453 387 l 98 387 "},"Q":{"x_min":69.84375,"x_max":1169.625,"ha":1203,"o":"m 962 134 b 1109 495 1058 231 1109 357 b 957 863 1109 635 1056 764 b 589 1014 859 962 729 1014 b 220 863 449 1014 318 962 b 69 495 121 764 69 635 b 220 127 69 355 121 226 b 581 -24 317 30 450 -24 b 853 46 676 -24 765 -1 l 980 -93 l 1169 -93 l 962 134 m 765 355 l 573 355 l 747 163 b 593 126 698 138 649 126 b 234 495 386 126 234 289 b 337 757 234 595 269 687 b 589 867 406 828 495 867 b 841 757 683 867 773 828 b 945 495 909 687 945 595 b 859 252 945 402 917 326 l 765 355 "},"M":{"x_min":18,"x_max":1160,"ha":1199,"o":"m 905 490 l 1013 0 l 1160 0 l 924 1032 l 644 408 b 588 273 629 373 607 329 b 535 408 561 345 543 390 l 248 1032 l 18 0 l 163 0 l 268 488 b 286 626 277 533 284 579 b 333 500 298 582 314 540 l 588 -40 l 842 488 b 887 626 864 534 879 579 b 905 490 897 552 901 508 "},"C":{"x_min":69.421875,"x_max":901.0625,"ha":997,"o":"m 892 751 l 901 913 b 586 1016 805 981 703 1016 b 217 868 441 1016 314 965 b 69 494 121 770 69 640 b 216 120 69 350 121 216 b 589 -26 311 25 439 -26 b 891 66 706 -26 805 4 l 891 248 b 577 123 796 165 692 123 b 234 493 382 123 234 275 b 593 868 234 713 379 868 b 892 751 703 868 803 829 "},"œ":{"x_min":53.546875,"x_max":1238,"ha":1318,"o":"m 595 319 b 399 106 595 199 505 106 b 204 319 291 106 204 199 b 399 533 204 440 291 533 b 595 319 506 533 595 440 m 660 100 b 915 -25 723 12 802 -25 b 1231 165 1056 -25 1160 36 l 1109 235 b 912 106 1063 146 1004 106 b 734 300 807 106 740 179 l 1238 300 b 1238 328 1238 310 1238 319 b 915 665 1238 542 1118 665 b 666 529 799 665 720 618 b 407 665 608 615 520 665 b 152 562 308 665 219 629 b 53 321 88 497 53 412 b 227 21 53 194 116 86 b 403 -25 279 -9 339 -25 b 660 100 504 -25 585 15 m 1088 399 l 743 399 b 919 540 766 494 825 540 b 1088 399 1018 540 1077 492 "},"!":{"x_min":136.109375,"x_max":310.328125,"ha":457,"o":"m 136 62 b 223 -26 136 13 174 -26 b 310 62 272 -26 310 13 b 223 151 310 112 272 151 b 136 62 175 151 136 111 m 148 1015 l 148 227 l 299 227 l 299 1015 l 148 1015 "},"ç":{"x_min":53.078125,"x_max":570.3125,"ha":631,"o":"m 570 459 l 570 625 b 402 665 521 652 466 665 b 53 319 194 665 53 526 b 387 -26 53 115 190 -26 b 570 19 457 -26 517 -11 l 570 188 b 404 108 528 134 473 108 b 202 323 279 108 202 188 b 397 536 202 452 280 536 b 570 459 466 536 526 508 m 210 -266 b 382 -293 283 -284 340 -293 b 540 -176 485 -293 540 -250 b 392 -58 540 -97 491 -58 b 381 -58 387 -58 385 -58 l 381 0 l 323 0 l 323 -125 b 351 -123 333 -125 341 -123 b 439 -173 411 -123 439 -137 b 371 -219 439 -205 416 -219 b 210 -194 332 -219 280 -211 l 210 -266 "},"È":{"x_min":111.8125,"x_max":654.578125,"ha":739,"o":"m 111 0 l 654 0 l 654 144 l 269 144 l 269 465 l 654 465 l 654 606 l 269 606 l 269 855 l 654 855 l 654 993 l 111 993 l 111 0 m 479 1090 l 352 1275 l 203 1275 l 397 1090 l 479 1090 "},"ﬁ":{"x_min":9.53125,"x_max":677.828125,"ha":781,"o":"m 119 0 l 264 0 l 264 513 l 415 513 l 415 643 l 264 643 l 264 795 b 360 938 264 894 288 938 b 431 918 385 938 408 931 l 431 1051 b 333 1065 396 1061 363 1065 b 119 815 186 1065 119 984 l 119 643 l 9 643 l 9 513 l 119 513 l 119 0 m 514 0 l 660 0 l 660 643 l 514 643 l 514 0 m 496 920 b 588 827 496 870 537 827 b 677 920 638 827 677 868 b 588 1012 677 973 638 1012 b 496 920 537 1012 496 970 "},"{":{"x_min":107.609375,"x_max":581.28125,"ha":694,"o":"m 581 1001 b 551 1001 570 1001 560 1001 b 358 968 465 1001 404 995 b 290 763 296 930 290 866 l 290 595 b 136 419 290 468 249 419 b 107 420 126 419 117 420 l 107 300 b 136 301 117 300 126 301 b 290 123 250 301 290 251 l 290 -44 b 358 -247 290 -147 298 -211 b 539 -280 401 -273 460 -280 b 581 -280 552 -280 566 -280 l 581 -161 b 551 -162 570 -161 560 -162 b 426 -15 445 -162 426 -125 l 426 147 b 291 359 426 272 402 331 b 426 572 402 387 426 445 l 426 736 b 549 881 426 845 445 881 b 581 880 559 881 570 880 l 581 1001 "},"X":{"x_min":0,"x_max":780,"ha":794,"o":"m 0 0 l 167 0 l 337 283 b 390 381 359 319 377 352 b 442 281 415 333 432 300 l 605 0 l 780 0 l 473 522 l 758 993 l 596 993 l 447 748 b 394 651 427 713 409 681 b 343 750 372 694 356 727 l 202 993 l 36 993 l 315 519 l 0 0 "},"ô":{"x_min":52.5625,"x_max":747.71875,"ha":817,"o":"m 52 320 b 154 75 52 226 88 141 b 398 -26 220 9 307 -26 b 646 76 492 -26 578 9 b 747 320 712 140 747 225 b 645 563 747 413 710 498 b 398 665 578 630 492 665 b 154 565 307 665 220 630 b 52 320 88 500 52 413 m 595 319 b 400 105 595 198 506 105 b 205 319 292 105 205 198 b 400 533 205 440 292 533 b 595 319 507 533 595 440 m 202 740 l 284 740 l 400 847 l 516 740 l 598 740 l 469 925 l 330 925 l 202 740 "},"¼":{"x_min":100.078125,"x_max":1217.046875,"ha":1289,"o":"m 226 429 l 317 429 l 317 979 l 138 979 l 100 908 l 226 908 l 226 429 m 292 -26 l 383 -26 l 973 1002 l 881 1002 l 292 -26 m 1051 0 l 1142 0 l 1142 112 l 1217 112 l 1217 176 l 1142 176 l 1142 561 l 1113 561 l 757 112 l 1051 112 l 1051 0 m 1053 375 b 1051 320 1051 344 1051 325 l 1051 176 l 899 176 l 1053 375 "},"#":{"x_min":46,"x_max":1000,"ha":1068,"o":"m 488 991 l 384 695 l 175 695 l 134 579 l 344 579 l 284 408 l 86 408 l 46 291 l 244 291 l 141 -2 l 267 -2 l 372 291 l 540 291 l 436 -2 l 563 -2 l 666 291 l 870 291 l 911 408 l 706 408 l 765 579 l 960 579 l 1000 695 l 806 695 l 908 991 l 782 991 l 678 695 l 512 695 l 614 991 l 488 991 m 470 579 l 640 579 l 580 406 l 410 406 l 470 579 "},"Ê":{"x_min":111.78125,"x_max":655.140625,"ha":739,"o":"m 111 0 l 655 0 l 655 144 l 269 144 l 269 465 l 655 465 l 655 606 l 269 606 l 269 855 l 655 855 l 655 993 l 111 993 l 111 0 m 188 1090 l 269 1090 l 385 1197 l 501 1090 l 583 1090 l 454 1275 l 316 1275 l 188 1090 "},")":{"x_min":29.9375,"x_max":295.359375,"ha":421,"o":"m 137 -303 b 295 365 242 -104 295 117 b 137 1039 295 622 245 843 l 29 1005 b 170 366 127 808 170 602 b 29 -266 170 122 129 -82 l 137 -303 "},"Å":{"x_min":-20,"x_max":922,"ha":919,"o":"m 317 390 l 416 616 b 452 729 427 643 439 679 b 488 616 465 679 477 643 l 588 390 l 317 390 m 754 0 l 922 0 l 468 993 l 434 993 l -20 0 l 145 0 l 258 255 l 644 255 l 754 0 m 294 1176 b 450 1016 294 1086 362 1016 b 608 1176 539 1016 608 1087 b 450 1337 608 1265 537 1337 b 294 1176 363 1337 294 1266 m 375 1176 b 452 1254 375 1219 409 1254 b 528 1176 494 1254 528 1219 b 452 1100 528 1134 494 1100 b 375 1176 409 1100 375 1133 "},"ø":{"x_min":45.640625,"x_max":754.203125,"ha":817,"o":"m 98 -35 l 185 49 b 394 -25 240 0 311 -25 b 746 320 594 -25 746 122 b 669 534 746 398 721 466 l 754 621 l 698 675 l 615 589 b 404 666 559 639 488 666 b 53 318 202 666 53 519 b 128 106 53 240 78 172 l 45 19 l 98 -35 m 517 489 l 232 207 b 202 322 211 247 202 284 b 406 532 202 440 288 532 b 517 489 448 532 484 519 m 281 147 l 564 430 b 594 315 585 391 594 354 b 394 108 594 196 510 108 b 281 147 352 108 315 121 "},"â":{"x_min":53.5625,"x_max":693.5625,"ha":808,"o":"m 553 323 b 377 104 553 187 477 104 b 204 318 268 104 204 180 b 380 535 204 454 271 535 b 553 323 487 535 553 458 m 693 0 l 693 643 l 549 643 l 549 537 b 336 665 515 619 440 665 b 53 322 170 665 53 529 b 340 -26 53 103 165 -26 b 549 83 429 -26 497 10 l 549 0 l 693 0 m 206 740 l 287 740 l 403 847 l 519 740 l 601 740 l 472 925 l 334 925 l 206 740 "},"}":{"x_min":101.078125,"x_max":573.390625,"ha":694,"o":"m 101 1001 l 101 880 b 132 881 111 880 122 881 b 254 736 235 881 254 845 l 254 572 b 391 359 254 447 278 387 b 254 147 279 331 254 272 l 254 -15 b 131 -162 254 -125 237 -162 b 101 -161 121 -162 111 -161 l 101 -280 b 131 -280 111 -280 121 -280 b 322 -247 215 -280 278 -275 b 391 -44 384 -209 391 -145 l 391 123 b 544 301 391 251 430 301 b 573 300 554 301 563 300 l 573 420 b 544 419 563 420 552 419 b 391 595 430 419 391 468 l 391 763 b 322 968 391 865 384 930 b 131 1001 276 995 215 1001 b 101 1001 121 1001 111 1001 "},"‰":{"x_min":38.109375,"x_max":1553.03125,"ha":1624,"o":"m 302 -26 l 869 1002 l 778 1002 l 210 -26 l 302 -26 m 38 741 b 255 480 38 575 119 480 b 472 741 392 480 472 576 b 255 1002 472 909 392 1002 b 38 741 119 1002 38 906 m 254 559 b 157 740 193 559 157 622 b 257 923 157 861 191 923 b 352 741 318 923 352 859 b 254 559 352 619 319 559 m 822 54 b 725 234 760 54 725 116 b 824 416 725 355 759 416 b 921 236 886 416 921 354 b 822 54 921 113 887 54 m 607 236 b 823 -26 607 70 687 -26 b 1041 236 959 -26 1041 70 b 824 497 1041 404 960 497 b 607 236 688 497 607 401 m 1118 236 b 1335 -26 1118 70 1199 -26 b 1553 236 1471 -26 1553 70 b 1336 497 1553 404 1472 497 b 1118 236 1200 497 1118 401 m 1333 54 b 1237 234 1272 54 1237 116 b 1336 416 1237 355 1271 416 b 1433 236 1397 416 1433 354 b 1333 54 1433 113 1399 54 "},"Ä":{"x_min":-20,"x_max":922,"ha":919,"o":"m 754 0 l 922 0 l 451 1032 l -20 0 l 146 0 l 259 255 l 644 255 l 754 0 m 317 390 l 416 616 b 452 729 427 643 440 679 b 489 616 465 679 478 643 l 588 390 l 317 390 m 249 1201 b 329 1118 249 1154 284 1118 b 408 1201 376 1118 408 1152 b 329 1282 408 1245 373 1282 b 249 1201 286 1282 249 1244 m 491 1201 b 572 1118 491 1154 527 1118 b 651 1201 618 1118 651 1152 b 572 1282 651 1245 615 1282 b 491 1201 528 1282 491 1244 "},"¸":{"x_min":182.390625,"x_max":511.78125,"ha":694,"o":"m 182 -266 b 353 -293 254 -284 311 -293 b 511 -176 457 -293 511 -250 b 363 -58 511 -97 462 -58 b 352 -58 359 -58 356 -58 l 352 0 l 295 0 l 295 -125 b 322 -123 304 -125 313 -123 b 411 -173 382 -123 411 -137 b 343 -219 411 -205 387 -219 b 182 -194 303 -219 251 -211 l 182 -266 "},"a":{"x_min":53.078125,"x_max":692.8125,"ha":808,"o":"m 552 323 b 377 104 552 187 476 104 b 204 318 268 104 204 180 b 379 535 204 454 270 535 b 552 323 487 535 552 458 m 692 0 l 692 643 l 548 643 l 548 537 b 336 665 514 619 439 665 b 53 322 170 665 53 529 b 340 -26 53 103 164 -26 b 548 83 428 -26 496 10 l 548 0 l 692 0 "},"—":{"x_min":0,"x_max":1361.109375,"ha":1389,"o":"m 0 270 l 1361 270 l 1361 369 l 0 369 l 0 270 "},"=":{"x_min":168.78125,"x_max":965.03125,"ha":1157,"o":"m 168 611 l 168 497 l 965 497 l 965 611 l 168 611 m 168 330 l 168 218 l 965 218 l 965 330 l 168 330 "},"N":{"x_min":111.609375,"x_max":981.359375,"ha":1115,"o":"m 111 0 l 257 0 l 257 690 b 351 579 284 651 315 613 l 981 -38 l 981 993 l 835 993 l 835 304 b 729 425 803 345 769 386 l 111 1031 l 111 0 "},"˚":{"x_min":182.390625,"x_max":498.171875,"ha":694,"o":"m 182 870 b 340 711 182 780 251 711 b 498 870 428 711 498 781 b 340 1031 498 959 427 1031 b 182 870 253 1031 182 961 m 265 870 b 340 948 265 913 298 948 b 416 870 382 948 416 913 b 340 794 416 829 382 794 b 265 870 298 794 265 827 "},"ú":{"x_min":95.03125,"x_max":704.5,"ha":817,"o":"m 239 643 l 95 643 l 95 325 b 401 -26 95 83 180 -26 b 704 325 617 -26 704 84 l 704 643 l 560 643 l 560 280 b 399 105 560 159 516 105 b 239 280 282 105 239 159 l 239 643 m 306 740 l 387 740 l 582 925 l 432 925 l 306 740 "},"⁄":{"x_min":-227,"x_max":454,"ha":232,"o":"m -227 -26 l -135 -26 l 454 1002 l 362 1002 l -227 -26 "},"2":{"x_min":28.578125,"x_max":680.5625,"ha":839,"o":"m 680 129 l 310 129 l 434 275 b 679 727 582 448 679 572 b 375 1002 679 897 563 1002 b 51 709 176 1002 51 887 l 204 709 b 362 863 210 802 273 863 b 522 705 462 863 522 802 b 392 444 522 633 477 550 l 28 0 l 680 0 l 680 129 "},"ü":{"x_min":95.28125,"x_max":705.0625,"ha":817,"o":"m 239 643 l 95 643 l 95 325 b 401 -26 95 83 181 -26 b 705 325 617 -26 705 84 l 705 643 l 560 643 l 560 280 b 400 105 560 159 517 105 b 239 280 283 105 239 159 l 239 643 m 198 851 b 279 768 198 804 234 768 b 357 851 325 768 357 802 b 279 931 357 895 322 931 b 198 851 235 931 198 894 m 441 851 b 521 768 441 804 476 768 b 600 851 567 768 600 802 b 521 931 600 895 564 931 b 441 851 477 931 441 894 "},"¯":{"x_min":164.6875,"x_max":514.5,"ha":694,"o":"m 164 781 l 514 781 l 514 877 l 164 877 l 164 781 "},"Z":{"x_min":12,"x_max":756.984375,"ha":800,"o":"m 12 0 l 756 0 l 756 144 l 259 144 l 751 993 l 95 993 l 95 855 l 507 855 l 12 0 "},"u":{"x_min":95.28125,"x_max":705.0625,"ha":817,"o":"m 239 643 l 95 643 l 95 325 b 401 -26 95 83 181 -26 b 705 325 617 -26 705 84 l 705 643 l 560 643 l 560 280 b 400 105 560 159 517 105 b 239 280 283 105 239 159 l 239 643 "},"˜":{"x_min":146,"x_max":535,"ha":694,"o":"m 535 909 l 475 909 b 420 863 467 879 447 863 b 389 866 411 863 400 863 l 311 887 b 271 893 296 891 283 893 b 146 751 207 893 166 847 l 205 751 b 262 797 215 784 233 797 b 287 794 271 797 279 795 l 370 772 b 405 768 382 769 393 768 b 535 909 469 768 518 818 "},"Ó":{"x_min":68.96875,"x_max":1108.5625,"ha":1203,"o":"m 1108 494 b 956 863 1108 634 1055 763 b 588 1015 856 962 728 1015 b 220 863 448 1015 319 962 b 68 494 120 763 68 636 b 220 126 68 352 120 225 b 588 -26 318 27 450 -26 b 956 126 727 -26 856 27 b 1108 494 1055 225 1108 352 m 943 494 b 839 231 943 394 907 302 b 588 123 771 161 684 123 b 337 231 493 123 405 161 b 233 494 269 302 233 394 b 337 758 233 594 269 687 b 588 866 405 829 494 866 b 839 758 682 866 772 829 b 943 494 907 687 943 594 m 495 1090 l 576 1090 l 771 1275 l 621 1275 l 495 1090 "},"k":{"x_min":99.359375,"x_max":713.21875,"ha":717,"o":"m 99 0 l 243 0 l 243 331 l 526 0 l 713 0 l 400 359 l 686 643 l 507 643 l 243 376 l 243 1051 l 99 1051 l 99 0 "},"ˇ":{"x_min":143,"x_max":538,"ha":694,"o":"m 143 925 l 271 740 l 409 740 l 538 925 l 456 925 l 340 818 l 224 925 l 143 925 "},"Ù":{"x_min":107.578125,"x_max":906.25,"ha":1033,"o":"m 107 993 l 107 375 b 506 -26 107 106 238 -26 b 906 375 774 -26 906 106 l 906 993 l 748 993 l 748 390 b 506 120 748 211 666 120 b 264 390 345 120 264 211 l 264 993 l 107 993 m 600 1090 l 473 1275 l 324 1275 l 518 1090 l 600 1090 "},"Ÿ":{"x_min":-6.390625,"x_max":813,"ha":824,"o":"m 321 0 l 478 0 l 478 454 l 813 993 l 655 993 l 445 659 b 404 576 430 636 416 608 b 363 655 382 622 367 648 l 159 993 l -6 993 l 321 454 l 321 0 m 203 1201 b 283 1118 203 1154 238 1118 b 362 1201 329 1118 362 1152 b 283 1281 362 1245 327 1281 b 203 1201 239 1281 203 1244 m 445 1201 b 525 1118 445 1154 480 1118 b 604 1201 572 1118 604 1152 b 525 1281 604 1245 569 1281 b 445 1201 482 1281 445 1244 "},"¢":{"x_min":123.859375,"x_max":660.140625,"ha":839,"o":"m 660 651 l 660 790 b 483 830 596 816 539 829 l 483 937 l 413 937 l 413 827 b 123 498 231 800 123 673 b 413 180 123 325 239 194 l 413 40 l 483 40 l 483 178 b 660 226 551 180 608 196 l 660 368 b 483 303 619 334 562 315 l 483 708 b 660 651 547 702 604 687 m 413 707 l 413 303 b 254 508 314 321 254 397 b 413 707 254 608 318 690 "},"ß":{"x_min":31.3125,"x_max":763.578125,"ha":836,"o":"m 340 130 l 340 0 b 454 -26 374 -19 411 -26 b 763 291 654 -26 763 90 b 500 576 763 463 669 568 b 684 802 624 613 684 687 b 402 1065 684 959 575 1065 b 108 801 224 1065 108 954 l 108 643 l 31 643 l 31 504 l 108 504 l 108 0 l 253 0 l 253 693 b 397 934 253 851 269 934 b 533 777 484 934 533 880 b 385 634 533 687 480 634 b 363 636 378 634 371 636 l 363 500 b 386 500 371 500 379 500 b 612 304 537 500 612 436 b 430 109 612 179 547 109 b 340 130 396 109 367 116 "},"é":{"x_min":53.171875,"x_max":707,"ha":772,"o":"m 557 398 l 212 398 b 386 540 235 494 292 540 b 557 398 486 540 546 491 m 707 300 b 707 327 707 309 707 319 b 384 665 707 541 587 665 b 53 319 187 665 53 519 b 384 -26 53 109 182 -26 b 700 165 525 -26 629 36 l 578 234 b 381 108 532 145 473 108 b 202 300 276 108 209 179 l 707 300 m 290 740 l 371 740 l 566 925 l 416 925 l 290 740 "},"s":{"x_min":27.578125,"x_max":533.90625,"ha":592,"o":"m 27 116 b 276 -26 73 19 154 -26 b 533 179 441 -26 533 54 b 371 369 533 272 482 325 b 205 481 273 409 205 419 b 297 555 205 526 241 555 b 401 488 347 555 386 529 l 503 561 b 302 666 472 627 401 666 b 61 473 152 666 61 584 b 242 279 61 380 122 330 b 392 169 329 241 392 236 b 288 84 392 118 354 84 b 147 183 212 84 165 119 l 27 116 "},"B":{"x_min":112,"x_max":735.390625,"ha":800,"o":"m 112 0 l 358 0 b 656 75 494 0 587 4 b 735 281 705 125 735 200 b 553 526 735 415 665 508 b 693 733 644 554 693 627 b 597 943 693 822 657 898 b 357 993 538 988 460 993 l 112 993 l 112 0 m 267 134 l 267 451 l 321 451 b 369 451 337 451 354 451 b 497 429 416 451 460 448 b 572 291 546 402 572 354 b 510 165 572 237 548 191 b 321 134 472 138 410 134 l 267 134 m 267 573 l 267 858 l 327 858 b 533 711 467 858 533 834 b 327 573 533 606 469 573 l 267 573 "},"…":{"x_min":140.1875,"x_max":1222.28125,"ha":1389,"o":"m 140 75 b 227 -12 140 26 178 -12 b 314 75 276 -12 314 26 b 227 165 314 125 276 165 b 140 75 178 165 140 125 m 593 75 b 680 -12 593 26 631 -12 b 767 75 729 -12 767 26 b 680 165 767 125 729 165 b 593 75 631 165 593 125 m 1048 75 b 1135 -12 1048 26 1086 -12 b 1222 75 1184 -12 1222 26 b 1135 165 1222 125 1184 165 b 1048 75 1086 165 1048 125 "},"?":{"x_min":137.46875,"x_max":607.0625,"ha":756,"o":"m 264 62 b 351 -26 264 13 302 -26 b 438 62 400 -26 438 13 b 351 151 438 112 400 151 b 264 62 303 151 264 111 m 253 756 b 370 893 253 843 298 893 b 481 788 435 893 481 848 b 352 659 481 725 432 698 b 145 413 219 594 145 540 b 362 213 145 300 234 213 b 574 423 498 213 574 290 b 574 437 574 427 574 433 l 455 437 b 362 331 454 369 421 331 b 273 416 311 331 273 372 b 420 550 273 479 330 504 b 607 783 543 611 607 661 b 370 1016 607 923 515 1016 b 137 781 230 1016 137 925 b 138 756 137 773 138 765 l 253 756 "},"H":{"x_min":111.609375,"x_max":906.5,"ha":1039,"o":"m 111 0 l 269 0 l 269 481 l 748 481 l 748 0 l 906 0 l 906 993 l 748 993 l 748 626 l 269 626 l 269 993 l 111 993 l 111 0 "},"î":{"x_min":-19,"x_max":376,"ha":364,"o":"m 106 0 l 250 0 l 250 643 l 106 643 l 106 0 m -19 740 l 62 740 l 178 847 l 294 740 l 376 740 l 247 925 l 109 925 l -19 740 "},"c":{"x_min":53.078125,"x_max":570.3125,"ha":631,"o":"m 570 459 l 570 625 b 402 665 521 652 466 665 b 53 319 194 665 53 526 b 387 -26 53 115 190 -26 b 570 19 457 -26 517 -11 l 570 188 b 404 108 528 134 473 108 b 202 323 279 108 202 188 b 397 536 202 452 280 536 b 570 459 466 536 526 508 "},"¶":{"x_min":36.75,"x_max":643.8125,"ha":694,"o":"m 643 1002 l 296 1002 b 36 766 136 1002 36 905 b 281 531 36 633 129 537 l 281 0 l 367 0 l 367 936 l 480 936 l 480 0 l 566 0 l 566 936 l 643 936 l 643 1002 "},"−":{"x_min":168.78125,"x_max":965.03125,"ha":1157,"o":"m 168 472 l 168 356 l 965 356 l 965 472 l 168 472 "},"•":{"x_min":204.171875,"x_max":597.53125,"ha":819,"o":"m 204 516 b 400 315 204 405 291 315 b 597 516 509 315 597 406 b 401 716 597 627 509 716 b 204 516 292 716 204 627 "},"¥":{"x_min":0,"x_max":807,"ha":839,"o":"m 326 0 l 472 0 l 472 391 l 800 391 l 800 490 l 499 490 l 567 601 l 800 601 l 800 700 l 630 700 l 807 984 l 654 984 l 445 654 b 404 568 428 627 415 598 b 363 650 385 611 370 638 l 159 984 l 0 984 l 176 700 l 6 700 l 6 601 l 235 601 l 302 490 l 6 490 l 6 391 l 326 391 l 326 0 "},"(":{"x_min":111.609375,"x_max":378.390625,"ha":421,"o":"m 269 -303 l 378 -266 b 238 366 279 -82 238 122 b 378 1005 238 602 280 808 l 269 1039 b 111 365 161 843 111 622 b 269 -303 111 117 164 -104 "},"U":{"x_min":107.53125,"x_max":906.5,"ha":1033,"o":"m 107 993 l 107 375 b 506 -26 107 106 238 -26 b 906 375 774 -26 906 106 l 906 993 l 748 993 l 748 390 b 506 120 748 211 666 120 b 264 390 345 120 264 211 l 264 993 l 107 993 "},"Ñ":{"x_min":112.078125,"x_max":981.5625,"ha":1115,"o":"m 112 0 l 257 0 l 257 690 b 351 579 284 651 316 613 l 981 -38 l 981 993 l 835 993 l 835 304 b 729 425 803 345 769 386 l 112 1031 l 112 0 m 742 1259 l 682 1259 b 627 1213 674 1229 654 1213 b 596 1216 618 1213 607 1213 l 518 1237 b 478 1243 503 1241 490 1243 b 353 1101 414 1243 373 1197 l 412 1101 b 469 1147 422 1134 440 1147 b 494 1144 478 1147 486 1145 l 577 1122 b 612 1118 589 1119 600 1118 b 742 1259 676 1118 725 1168 "},"F":{"x_min":111.609375,"x_max":654.703125,"ha":729,"o":"m 111 0 l 269 0 l 269 466 l 654 466 l 654 608 l 269 608 l 269 855 l 654 855 l 654 993 l 111 993 l 111 0 "},":":{"x_min":136.109375,"x_max":310.328125,"ha":457,"o":"m 136 75 b 223 -12 136 26 174 -12 b 310 75 272 -12 310 26 b 223 163 310 125 272 163 b 136 75 175 163 136 123 m 136 538 b 223 450 136 490 174 450 b 310 538 272 450 310 490 b 223 626 310 588 272 626 b 136 538 175 626 136 587 "},"Û":{"x_min":107.5625,"x_max":906.8125,"ha":1033,"o":"m 107 993 l 107 375 b 506 -26 107 106 238 -26 b 906 375 774 -26 906 106 l 906 993 l 748 993 l 748 390 b 506 120 748 211 667 120 b 264 390 345 120 264 211 l 264 993 l 107 993 m 309 1090 l 390 1090 l 506 1197 l 622 1090 l 704 1090 l 575 1275 l 437 1275 l 309 1090 "},"*":{"x_min":71,"x_max":528,"ha":611,"o":"m 118 588 l 257 681 l 250 516 l 347 516 l 337 683 l 477 588 l 528 670 l 374 752 l 528 838 l 480 922 l 337 829 l 347 993 l 250 993 l 258 830 l 118 922 l 71 838 l 221 748 l 71 670 l 118 588 "},"†":{"x_min":55.8125,"x_max":669.671875,"ha":739,"o":"m 294 -302 l 430 -302 l 430 502 l 669 502 l 669 626 l 430 626 l 430 993 l 294 993 l 294 626 l 55 626 l 55 502 l 294 502 l 294 -302 "},"°":{"x_min":28.578125,"x_max":420.578125,"ha":457,"o":"m 224 991 b 28 790 115 991 28 902 b 223 590 28 677 114 590 b 420 790 333 590 420 681 b 224 991 420 901 332 991 m 224 916 b 347 791 292 916 347 861 b 224 665 347 723 294 665 b 100 791 156 665 100 722 b 224 916 100 861 156 916 "},"V":{"x_min":-14.390625,"x_max":854,"ha":858,"o":"m 419 -39 l 854 992 l 690 992 l 472 463 b 419 304 449 408 432 355 b 368 463 408 356 391 408 l 150 992 l -14 992 l 419 -39 "},"å":{"x_min":53.078125,"x_max":692.8125,"ha":808,"o":"m 692 0 l 692 643 l 548 643 l 548 537 b 336 665 514 619 439 665 b 53 322 170 665 53 529 b 340 -26 53 103 164 -26 b 548 83 428 -26 496 10 l 548 0 l 692 0 m 552 323 b 377 104 552 187 476 104 b 204 318 268 104 204 180 b 379 535 204 454 270 535 b 552 323 487 535 552 458 m 219 871 b 377 711 219 780 288 711 b 533 871 464 711 533 782 b 377 1032 533 960 464 1032 b 219 871 289 1032 219 961 m 302 871 b 377 948 302 914 334 948 b 453 871 419 948 453 914 b 377 794 453 829 419 794 b 302 871 334 794 302 828 "},"0":{"x_min":61.25,"x_max":760.859375,"ha":839,"o":"m 408 112 b 219 487 288 112 219 243 b 413 865 219 737 285 865 b 602 490 536 865 602 736 b 408 112 602 238 537 112 m 760 477 b 412 1002 760 819 632 1002 b 61 488 194 1002 61 816 b 411 -26 61 158 193 -26 b 760 477 626 -26 760 158 "},"”":{"x_min":56,"x_max":546,"ha":614,"o":"m 298 646 l 382 615 l 546 974 l 425 1015 l 298 646 m 56 646 l 140 615 l 304 974 l 182 1015 l 56 646 "},"¾":{"x_min":39.1875,"x_max":1217.046875,"ha":1289,"o":"m 39 579 b 237 415 41 479 120 415 b 450 576 371 415 450 480 b 330 720 450 658 408 708 b 436 844 397 730 436 776 b 252 991 436 934 367 991 b 63 844 135 991 70 938 l 153 844 b 251 919 156 893 190 919 b 342 841 307 919 342 888 b 232 759 342 787 304 759 b 214 761 227 759 221 761 l 214 687 b 233 688 221 687 228 688 b 357 588 315 688 357 655 b 242 490 357 525 315 490 b 134 575 175 490 134 523 b 134 579 134 576 134 577 l 39 579 m 291 -25 l 382 -25 l 972 1004 l 880 1004 l 291 -25 m 1051 1 l 1142 1 l 1142 113 l 1217 113 l 1217 177 l 1142 177 l 1142 562 l 1113 562 l 756 113 l 1051 113 l 1051 1 m 1053 376 b 1051 322 1051 345 1051 326 l 1051 177 l 898 177 l 1053 376 "},"@":{"x_min":65.328125,"x_max":1295.78125,"ha":1389,"o":"m 819 479 l 782 325 b 608 162 759 226 686 162 b 492 301 534 162 492 211 b 696 598 492 466 585 598 b 819 479 763 598 807 555 m 779 191 b 779 188 779 190 779 188 b 918 76 779 112 824 76 b 1129 152 994 76 1068 102 b 1295 518 1235 240 1295 370 b 1120 881 1295 668 1238 788 b 741 998 1029 954 892 998 b 201 751 515 998 330 912 b 65 354 112 640 65 504 b 269 -75 65 173 132 31 b 690 -204 377 -159 518 -204 b 1137 -50 853 -204 1004 -152 l 1092 16 b 684 -112 975 -66 833 -112 b 174 352 375 -112 174 70 b 424 818 174 548 264 715 b 737 902 511 875 616 902 b 1186 516 1009 902 1186 741 b 1088 250 1186 412 1151 318 b 947 172 1042 198 989 172 b 883 229 909 172 883 194 b 888 262 883 237 886 248 l 986 659 l 884 659 l 847 587 b 683 683 813 652 762 683 b 370 305 514 683 370 522 b 578 77 370 158 443 77 b 779 191 668 77 730 112 "},"ö":{"x_min":53.078125,"x_max":747.25,"ha":817,"o":"m 53 320 b 155 75 53 226 88 141 b 398 -26 220 9 307 -26 b 646 76 492 -26 578 9 b 747 320 711 140 747 225 b 645 563 747 413 710 498 b 398 665 578 630 492 665 b 155 565 307 665 220 630 b 53 320 88 500 53 413 m 594 319 b 400 105 594 198 506 105 b 205 319 292 105 205 198 b 400 533 205 440 292 533 b 594 319 507 533 594 440 m 198 851 b 279 768 198 804 234 768 b 357 851 325 768 357 802 b 279 931 357 895 322 931 b 198 851 235 931 198 894 m 441 851 b 521 768 441 804 476 768 b 600 851 567 768 600 802 b 521 931 600 895 564 931 b 441 851 477 931 441 894 "},"i":{"x_min":87.109375,"x_max":268.140625,"ha":364,"o":"m 106 0 l 250 0 l 250 643 l 106 643 l 106 0 m 87 920 b 178 827 87 870 127 827 b 268 920 228 827 268 868 b 178 1012 268 973 228 1012 b 87 920 127 1012 87 970 "},"Õ":{"x_min":69.6875,"x_max":1109.3125,"ha":1203,"o":"m 1109 494 b 956 863 1109 634 1056 763 b 589 1015 857 962 729 1015 b 220 863 449 1015 320 962 b 69 494 121 763 69 636 b 220 126 69 352 121 225 b 589 -26 318 27 450 -26 b 956 126 728 -26 857 27 b 1109 494 1056 225 1109 352 m 944 494 b 839 231 944 394 907 302 b 589 123 771 161 684 123 b 337 231 494 123 405 161 b 234 494 269 302 234 394 b 337 758 234 594 269 687 b 589 866 405 829 495 866 b 839 758 683 866 773 829 b 944 494 907 687 944 594 m 784 1259 l 724 1259 b 669 1213 716 1229 696 1213 b 638 1216 660 1213 649 1213 l 560 1237 b 520 1243 545 1241 532 1243 b 395 1101 456 1243 415 1197 l 454 1101 b 511 1147 464 1134 482 1147 b 536 1144 520 1147 528 1145 l 619 1122 b 654 1118 631 1119 642 1118 b 784 1259 718 1118 767 1168 "},"þ":{"x_min":99.359375,"x_max":739.078125,"ha":808,"o":"m 243 84 b 451 -25 295 10 363 -25 b 739 322 627 -25 739 103 b 457 665 739 529 623 665 b 243 537 353 665 277 619 l 243 1051 l 99 1051 l 99 -302 l 243 -302 l 243 84 m 239 324 b 412 535 239 458 304 535 b 588 318 521 535 588 454 b 416 104 588 181 525 104 b 239 324 314 104 239 186 "},"]":{"x_min":28.578125,"x_max":280.390625,"ha":421,"o":"m 153 -173 l 28 -173 l 28 -280 l 280 -280 l 280 1015 l 28 1015 l 28 909 l 153 909 l 153 -173 "},"m":{"x_min":99.359375,"x_max":1097.0625,"ha":1215,"o":"m 243 0 l 243 293 b 268 468 243 372 243 426 b 401 541 295 513 344 541 b 526 330 500 541 526 476 l 526 0 l 672 0 l 672 293 b 830 541 672 458 705 541 b 952 330 939 541 952 472 l 952 0 l 1097 0 l 1097 390 b 1097 441 1097 408 1097 426 b 1073 575 1097 495 1094 540 b 892 666 1039 633 977 666 b 658 538 794 666 724 626 b 462 666 624 625 560 666 b 235 537 362 666 292 626 l 235 643 l 99 643 l 99 0 l 243 0 "},"8":{"x_min":75.1875,"x_max":744.8125,"ha":839,"o":"m 409 105 b 227 277 293 105 227 172 b 409 451 227 384 295 451 b 592 277 524 451 592 386 b 409 105 592 172 525 105 m 412 872 b 556 734 503 872 556 819 b 409 601 556 652 504 601 b 263 734 316 601 263 652 b 412 872 263 818 319 872 m 248 525 b 75 263 137 488 75 393 b 409 -26 75 88 196 -26 b 744 266 623 -26 744 87 b 571 525 744 391 679 488 b 712 730 663 561 712 631 b 409 1002 712 893 597 1002 b 107 737 223 1002 107 893 b 248 525 107 633 152 566 "},"ž":{"x_min":-1.25,"x_max":584,"ha":624,"o":"m 584 0 l 584 129 l 241 129 l 584 643 l 34 643 l 34 513 l 350 513 l -1 0 l 584 0 m 109 925 l 237 740 l 375 740 l 504 925 l 422 925 l 306 818 l 190 925 l 109 925 "},"R":{"x_min":111.609375,"x_max":779.921875,"ha":778,"o":"m 259 444 l 277 444 l 601 0 l 779 0 l 445 451 b 668 719 592 469 668 559 b 574 937 668 812 632 890 b 332 993 514 984 436 993 l 111 993 l 111 0 l 259 0 l 259 444 m 269 569 l 269 854 l 298 854 b 506 705 439 854 506 827 b 298 569 506 586 436 569 l 269 569 "},"á":{"x_min":53.109375,"x_max":692.53125,"ha":808,"o":"m 552 323 b 376 104 552 187 476 104 b 204 318 268 104 204 180 b 379 535 204 454 270 535 b 552 323 487 535 552 458 m 692 0 l 692 643 l 548 643 l 548 537 b 336 665 514 619 439 665 b 53 322 170 665 53 529 b 340 -26 53 103 164 -26 b 548 83 428 -26 496 10 l 548 0 l 692 0 m 309 740 l 390 740 l 585 925 l 435 925 l 309 740 "},"×":{"x_min":191,"x_max":957,"ha":1157,"o":"m 268 805 l 191 725 l 495 413 l 191 102 l 268 22 l 573 334 l 879 22 l 957 102 l 652 413 l 957 725 l 879 805 l 573 494 l 268 805 "},"o":{"x_min":53.078125,"x_max":747.25,"ha":817,"o":"m 53 320 b 155 75 53 226 88 141 b 398 -26 220 9 307 -26 b 646 76 492 -26 578 9 b 747 320 711 140 747 225 b 645 563 747 413 710 498 b 398 665 578 630 492 665 b 155 565 307 665 220 630 b 53 320 88 500 53 413 m 594 319 b 400 105 594 198 506 105 b 205 319 292 105 205 198 b 400 533 205 440 292 533 b 594 319 507 533 594 440 "},"5":{"x_min":51.71875,"x_max":729.5625,"ha":839,"o":"m 156 237 l 51 119 b 355 -26 123 19 221 -26 b 729 339 586 -26 729 119 b 416 667 729 533 601 667 b 265 633 366 667 317 655 l 322 853 l 687 853 l 687 983 l 227 983 l 106 479 l 145 471 b 351 555 198 526 269 555 b 578 333 487 555 578 464 b 362 105 578 196 490 105 b 156 237 276 105 202 151 "},"õ":{"x_min":52.5625,"x_max":746.4375,"ha":817,"o":"m 52 320 b 154 75 52 226 87 141 b 398 -26 219 9 306 -26 b 645 76 492 -26 577 9 b 746 320 711 140 746 225 b 644 563 746 413 709 498 b 398 665 577 630 492 665 b 154 565 306 665 219 630 b 52 320 87 500 52 413 m 594 319 b 399 105 594 198 505 105 b 205 319 292 105 205 198 b 399 533 205 440 292 533 b 594 319 506 533 594 440 m 594 909 l 534 909 b 479 863 526 879 506 863 b 448 866 470 863 459 863 l 370 887 b 330 893 355 891 342 893 b 205 751 266 893 225 847 l 264 751 b 321 797 274 784 292 797 b 346 794 330 797 338 795 l 429 772 b 464 768 441 769 452 768 b 594 909 528 768 577 818 "},"7":{"x_min":99,"x_max":770,"ha":839,"o":"m 152 21 l 280 -37 l 770 983 l 99 983 l 99 856 l 549 856 l 152 21 "},"K":{"x_min":111.609375,"x_max":858.859375,"ha":861,"o":"m 111 0 l 269 0 l 269 506 l 654 0 l 858 0 l 427 551 l 812 993 l 619 993 l 269 581 l 269 993 l 111 993 l 111 0 "},",":{"x_min":76,"x_max":334.609375,"ha":419,"o":"m 205 168 l 76 -209 l 161 -244 l 334 119 l 205 168 "},"d":{"x_min":53.078125,"x_max":692.8125,"ha":808,"o":"m 548 1051 l 548 537 b 336 665 514 619 439 665 b 53 322 170 665 53 529 b 340 -25 53 103 164 -25 b 548 84 428 -25 496 10 l 548 0 l 692 0 l 692 1051 l 548 1051 m 552 324 b 377 104 552 188 477 104 b 204 318 268 104 204 181 b 379 535 204 454 270 535 b 552 324 487 535 552 458 "},"¨":{"x_min":138.828125,"x_max":540.359375,"ha":694,"o":"m 138 851 b 219 768 138 804 174 768 b 298 851 265 768 298 802 b 219 931 298 895 262 931 b 138 851 175 931 138 894 m 381 851 b 461 768 381 804 416 768 b 540 851 507 768 540 802 b 461 931 540 895 504 931 b 381 851 417 931 381 894 "},"Ô":{"x_min":69.421875,"x_max":1109.578125,"ha":1203,"o":"m 1109 494 b 957 863 1109 634 1056 763 b 589 1015 857 962 729 1015 b 220 863 449 1015 319 962 b 69 494 121 763 69 636 b 220 126 69 352 121 225 b 589 -26 318 27 450 -26 b 957 126 728 -26 857 27 b 1109 494 1056 225 1109 352 m 944 494 b 840 231 944 394 908 302 b 589 123 771 161 684 123 b 337 231 494 123 405 161 b 234 494 269 302 234 394 b 337 758 234 594 269 687 b 589 866 405 829 495 866 b 840 758 683 866 773 829 b 944 494 908 687 944 594 m 392 1090 l 473 1090 l 589 1197 l 705 1090 l 787 1090 l 658 1275 l 520 1275 l 392 1090 "},"E":{"x_min":111.609375,"x_max":654.703125,"ha":739,"o":"m 111 0 l 654 0 l 654 144 l 269 144 l 269 465 l 654 465 l 654 606 l 269 606 l 269 855 l 654 855 l 654 993 l 111 993 l 111 0 "},"Y":{"x_min":-6.390625,"x_max":813,"ha":824,"o":"m 321 0 l 478 0 l 478 454 l 813 993 l 655 993 l 445 659 b 404 576 430 636 416 608 b 363 655 382 622 367 648 l 159 993 l -6 993 l 321 454 l 321 0 "},"\"":{"x_min":57.171875,"x_max":371.578125,"ha":436,"o":"m 57 973 l 57 595 l 166 595 l 166 973 l 57 973 m 262 973 l 262 595 l 371 595 l 371 973 l 262 973 "},"‹":{"x_min":53,"x_max":314,"ha":425,"o":"m 221 595 l 53 318 l 221 42 l 314 98 l 176 318 l 314 538 l 221 595 "},"˙":{"x_min":255.890625,"x_max":424.671875,"ha":694,"o":"m 255 851 b 340 765 255 802 292 765 b 424 851 389 765 424 801 b 340 937 424 898 386 937 b 255 851 295 937 255 897 "},"ê":{"x_min":53.609375,"x_max":707,"ha":772,"o":"m 557 398 l 212 398 b 386 540 236 494 293 540 b 557 398 486 540 546 491 m 707 300 b 707 327 707 309 707 319 b 384 665 707 541 587 665 b 53 319 188 665 53 519 b 384 -26 53 109 182 -26 b 700 165 525 -26 629 36 l 579 234 b 381 108 532 145 474 108 b 203 300 276 108 210 179 l 707 300 m 187 740 l 268 740 l 384 847 l 499 740 l 582 740 l 453 925 l 314 925 l 187 740 "},"Ï":{"x_min":-6.8125,"x_max":394.71875,"ha":396,"o":"m 114 0 l 272 0 l 272 993 l 114 993 l 114 0 m -6 1201 b 73 1118 -6 1154 28 1118 b 152 1201 119 1118 152 1152 b 73 1281 152 1245 117 1281 b -6 1201 29 1281 -6 1244 m 235 1201 b 315 1118 235 1154 270 1118 b 394 1201 362 1118 394 1152 b 315 1281 394 1245 359 1281 b 235 1201 272 1281 235 1244 "},"„":{"x_min":56,"x_max":546,"ha":614,"o":"m 298 -202 l 382 -233 l 546 126 l 425 167 l 298 -202 m 56 -202 l 140 -233 l 304 126 l 182 167 l 56 -202 "},"Â":{"x_min":-20,"x_max":922,"ha":919,"o":"m 754 0 l 922 0 l 451 1032 l -20 0 l 146 0 l 259 255 l 644 255 l 754 0 m 317 390 l 417 616 b 452 729 428 643 440 679 b 489 616 466 679 478 643 l 589 390 l 317 390 m 254 1090 l 335 1090 l 451 1197 l 567 1090 l 649 1090 l 520 1275 l 381 1275 l 254 1090 "},"Í":{"x_min":101,"x_max":377,"ha":396,"o":"m 114 0 l 272 0 l 272 993 l 114 993 l 114 0 m 101 1090 l 182 1090 l 377 1275 l 227 1275 l 101 1090 "},"´":{"x_min":246,"x_max":522,"ha":694,"o":"m 246 740 l 327 740 l 522 925 l 372 925 l 246 740 "},"ì":{"x_min":-4,"x_max":272,"ha":364,"o":"m 106 0 l 250 0 l 250 643 l 106 643 l 106 0 m 272 740 l 145 925 l -4 925 l 190 740 l 272 740 "},"±":{"x_min":168.78125,"x_max":965.03125,"ha":1157,"o":"m 510 818 l 510 591 l 168 591 l 168 479 l 510 479 l 510 252 l 623 252 l 623 479 l 965 479 l 965 591 l 623 591 l 623 818 l 510 818 m 168 123 l 168 9 l 965 9 l 965 123 l 168 123 "},"Ú":{"x_min":107.109375,"x_max":905.78125,"ha":1033,"o":"m 107 993 l 107 375 b 505 -26 107 106 237 -26 b 905 375 773 -26 905 106 l 905 993 l 747 993 l 747 390 b 505 120 747 211 666 120 b 263 390 345 120 263 211 l 263 993 l 107 993 m 412 1090 l 493 1090 l 688 1275 l 538 1275 l 412 1090 "},"|":{"x_min":281.75,"x_max":400.171875,"ha":694,"o":"m 281 1061 l 281 -327 l 400 -327 l 400 1061 l 281 1061 "},"§":{"x_min":55.78125,"x_max":670.75,"ha":739,"o":"m 102 -59 b 102 -73 102 -63 102 -69 b 356 -305 102 -212 201 -305 b 619 -79 523 -305 619 -215 b 488 116 619 4 572 76 b 670 361 609 152 670 236 b 415 663 670 522 589 593 b 244 801 302 709 244 737 b 363 898 244 855 291 898 b 487 775 442 898 484 856 l 610 775 b 610 788 610 779 610 784 b 372 1016 610 936 526 1016 b 110 798 204 1016 110 929 b 230 615 110 713 149 652 b 55 365 118 570 55 481 b 138 154 55 277 81 209 b 322 52 174 119 236 90 b 487 -81 424 8 487 -11 b 360 -183 487 -141 440 -183 b 236 -59 280 -183 239 -141 l 102 -59 m 365 190 b 200 363 276 190 200 265 b 365 538 200 462 274 538 b 533 363 457 538 533 461 b 365 190 533 265 455 190 "},"Ý":{"x_min":-7.140625,"x_max":813,"ha":824,"o":"m 320 0 l 477 0 l 477 454 l 813 993 l 654 993 l 444 659 b 403 576 429 636 416 608 b 363 655 382 622 367 648 l 158 993 l -7 993 l 320 454 l 320 0 m 310 1090 l 391 1090 l 586 1275 l 436 1275 l 310 1090 "},"b":{"x_min":99.359375,"x_max":739.078125,"ha":808,"o":"m 243 1052 l 99 1052 l 99 0 l 243 0 l 243 84 b 451 -25 295 10 363 -25 b 739 322 627 -25 739 103 b 457 666 739 529 623 666 b 243 538 353 666 277 620 l 243 1052 m 239 324 b 412 535 239 459 304 535 b 588 318 521 535 588 454 b 416 104 588 181 525 104 b 239 324 315 104 239 188 "},"q":{"x_min":53.078125,"x_max":692.8125,"ha":808,"o":"m 692 -302 l 692 643 l 548 643 l 548 537 b 336 665 514 619 439 665 b 53 322 170 665 53 529 b 340 -26 53 103 164 -26 b 548 83 428 -26 496 10 l 548 -302 l 692 -302 m 552 323 b 377 104 552 186 479 104 b 204 318 268 104 204 180 b 379 535 204 454 270 535 b 552 323 487 535 552 458 "},"Ö":{"x_min":69.421875,"x_max":1109.3125,"ha":1203,"o":"m 1109 494 b 956 863 1109 634 1056 763 b 589 1015 857 962 729 1015 b 220 863 449 1015 319 962 b 69 494 121 763 69 636 b 220 126 69 352 121 225 b 589 -26 318 27 450 -26 b 956 126 728 -26 857 27 b 1109 494 1056 225 1109 352 m 944 494 b 839 231 944 394 907 302 b 589 123 771 161 684 123 b 337 231 494 123 405 161 b 234 494 269 302 234 394 b 337 758 234 594 269 687 b 589 866 405 829 495 866 b 839 758 683 866 773 829 b 944 494 907 687 944 594 m 387 1201 b 468 1118 387 1154 423 1118 b 547 1201 514 1118 547 1152 b 468 1281 547 1245 511 1281 b 387 1201 424 1281 387 1244 m 630 1201 b 710 1118 630 1154 665 1118 b 789 1201 756 1118 789 1152 b 710 1281 789 1245 754 1281 b 630 1201 666 1281 630 1244 "},"ﬂ":{"x_min":9.53125,"x_max":660.140625,"ha":781,"o":"m 119 0 l 264 0 l 264 513 l 415 513 l 415 643 l 264 643 l 264 795 b 360 938 264 894 288 938 b 431 918 385 938 408 931 l 431 1051 b 333 1065 396 1061 363 1065 b 119 815 186 1065 119 984 l 119 643 l 9 643 l 9 513 l 119 513 l 119 0 m 514 0 l 660 0 l 660 1051 l 514 1051 l 514 0 "},"z":{"x_min":-1.125,"x_max":584,"ha":624,"o":"m 584 0 l 584 129 l 241 129 l 584 643 l 34 643 l 34 513 l 350 513 l -1 0 l 584 0 "},"™":{"x_min":149.71875,"x_max":945.96875,"ha":1157,"o":"m 149 991 l 149 927 l 262 927 l 262 623 l 348 623 l 348 927 l 460 927 l 460 991 l 149 991 m 537 991 l 537 623 l 613 623 l 613 913 l 724 623 l 763 623 l 869 913 l 869 623 l 945 623 l 945 991 l 833 991 l 744 747 l 650 991 l 537 991 "},"ã":{"x_min":52.828125,"x_max":692.28125,"ha":808,"o":"m 552 323 b 376 104 552 187 475 104 b 203 318 267 104 203 180 b 379 535 203 454 270 535 b 552 323 486 535 552 458 m 692 0 l 692 643 l 548 643 l 548 537 b 335 665 514 619 439 665 b 52 322 169 665 52 529 b 339 -26 52 103 164 -26 b 548 83 428 -26 496 10 l 548 0 l 692 0 m 597 910 l 537 910 b 482 864 529 879 509 864 b 451 866 473 864 462 864 l 373 887 b 333 893 358 891 345 893 b 208 751 269 893 228 847 l 267 751 b 324 797 277 785 295 797 b 349 794 333 797 341 796 l 432 772 b 467 768 444 769 455 768 b 597 910 531 768 580 818 "},"æ":{"x_min":46.53125,"x_max":1118,"ha":1197,"o":"m 488 203 b 329 105 488 144 433 105 b 196 201 245 105 196 143 b 343 300 196 261 250 300 b 488 203 435 300 488 260 m 1118 300 b 1118 325 1118 308 1118 316 b 795 666 1118 541 998 666 b 559 552 693 666 612 626 b 305 666 502 637 424 666 b 102 612 233 666 166 649 l 102 474 b 299 540 166 516 235 540 b 483 390 420 540 483 487 b 482 365 483 382 483 373 b 292 412 427 398 366 412 b 46 198 145 412 46 327 b 298 -25 46 67 141 -25 b 559 79 408 -25 501 12 b 795 -25 615 5 690 -25 b 1111 165 938 -25 1040 36 l 989 235 b 792 105 943 146 884 105 b 614 300 687 105 620 179 l 1118 300 m 968 398 l 623 398 b 799 540 646 494 705 540 b 968 398 898 540 957 491 "},"®":{"x_min":74.640625,"x_max":1058.71875,"ha":1157,"o":"m 566 997 b 223 854 432 997 315 948 b 74 495 127 756 74 629 b 217 144 74 363 125 240 b 566 -6 311 47 435 -6 b 914 140 693 -6 817 44 b 1058 495 1008 233 1058 356 b 918 847 1058 630 1009 752 b 566 997 823 945 700 997 m 567 923 b 866 795 683 923 785 879 b 986 488 945 713 986 609 b 864 193 986 376 943 270 b 560 68 781 111 676 68 b 269 195 454 68 349 113 b 148 495 190 277 148 383 b 274 801 148 608 193 716 b 567 923 353 881 453 923 m 365 786 l 365 223 l 484 223 l 484 458 l 570 458 l 678 223 l 811 223 l 688 477 b 811 633 767 495 811 551 b 578 786 811 731 733 786 l 365 786 m 484 709 l 556 709 b 689 619 646 709 689 683 b 561 533 689 558 649 533 l 484 533 l 484 709 "},"É":{"x_min":111.328125,"x_max":654.109375,"ha":739,"o":"m 111 0 l 654 0 l 654 144 l 269 144 l 269 465 l 654 465 l 654 606 l 269 606 l 269 855 l 654 855 l 654 993 l 111 993 l 111 0 m 291 1090 l 372 1090 l 567 1275 l 417 1275 l 291 1090 "},"~":{"x_min":118.421875,"x_max":1016.75,"ha":1157,"o":"m 1016 531 b 764 427 924 463 843 427 b 570 477 698 427 637 454 b 375 518 514 497 453 518 b 118 420 296 518 212 486 l 118 294 b 374 401 215 363 295 401 b 637 334 461 401 543 366 b 763 311 680 319 724 311 b 1016 406 845 311 928 344 l 1016 531 "},"³":{"x_min":40.828125,"x_max":472.3125,"ha":554,"o":"m 40 550 b 249 375 44 441 126 375 b 472 547 389 375 472 443 b 347 701 472 634 427 687 b 457 833 416 711 457 761 b 265 991 457 930 383 991 b 68 834 142 991 73 934 l 161 834 b 262 913 163 884 200 913 b 359 830 321 913 359 881 b 245 743 359 772 319 743 b 225 744 238 743 231 744 l 225 666 b 245 666 232 666 239 666 b 375 559 332 666 375 630 b 253 454 375 491 332 454 b 141 544 183 454 141 490 b 141 550 141 545 141 547 l 40 550 "},"¡":{"x_min":136.109375,"x_max":310.328125,"ha":457,"o":"m 136 927 b 223 838 136 879 175 838 b 310 927 272 838 310 877 b 223 1015 310 976 272 1015 b 136 927 174 1015 136 976 m 148 -26 l 299 -26 l 299 762 l 148 762 l 148 -26 "},"[":{"x_min":132.03125,"x_max":385.1875,"ha":421,"o":"m 258 -173 l 258 909 l 385 909 l 385 1015 l 132 1015 l 132 -280 l 385 -280 l 385 -173 l 258 -173 "},"L":{"x_min":111.609375,"x_max":623.390625,"ha":653,"o":"m 111 0 l 623 0 l 623 144 l 269 144 l 269 993 l 111 993 l 111 0 "}," ":{"x_min":0,"x_max":0,"ha":419},"%":{"x_min":38.109375,"x_max":1041.25,"ha":1100,"o":"m 302 -26 l 869 1002 l 778 1002 l 210 -26 l 302 -26 m 254 559 b 157 740 193 559 157 622 b 257 923 157 861 191 923 b 352 741 318 923 352 859 b 254 559 352 619 319 559 m 38 741 b 255 480 38 575 119 480 b 472 741 392 480 472 576 b 255 1002 472 909 392 1002 b 38 741 119 1002 38 906 m 607 236 b 823 -26 607 70 687 -26 b 1041 236 959 -26 1041 70 b 824 497 1041 404 960 497 b 607 236 688 497 607 401 m 822 54 b 725 234 760 54 725 116 b 824 416 725 355 759 416 b 921 236 886 416 921 354 b 822 54 921 113 887 54 "},"P":{"x_min":111.609375,"x_max":692.8125,"ha":739,"o":"m 259 447 l 319 447 b 351 447 330 447 341 447 b 594 497 450 447 529 450 b 692 720 654 541 692 625 b 594 943 692 816 654 898 b 351 994 529 991 450 994 b 319 994 340 994 330 994 l 111 994 l 111 1 l 259 1 l 259 447 m 269 579 l 269 855 l 310 855 b 529 711 457 855 529 830 b 310 579 529 595 455 579 l 269 579 "},"À":{"x_min":-20,"x_max":922,"ha":919,"o":"m 754 0 l 922 0 l 450 1032 l -20 0 l 145 0 l 258 255 l 643 255 l 754 0 m 317 390 l 416 616 b 451 729 427 643 439 679 b 488 616 465 679 477 643 l 587 390 l 317 390 m 544 1090 l 417 1275 l 268 1275 l 462 1090 l 544 1090 "},"_":{"x_min":0,"x_max":680.5625,"ha":694,"o":"m 0 -211 l 0 -327 l 680 -327 l 680 -211 l 0 -211 "},"ñ":{"x_min":98.9375,"x_max":707.078125,"ha":817,"o":"m 98 0 l 243 0 l 243 293 b 271 468 243 373 245 429 b 424 540 301 513 356 540 b 561 330 543 540 561 473 l 561 0 l 707 0 l 707 390 b 675 575 707 468 707 526 b 478 665 639 634 572 665 b 235 537 368 665 293 627 l 235 643 l 98 643 l 98 0 m 605 909 l 545 909 b 490 863 537 879 517 863 b 459 866 481 863 470 863 l 381 887 b 341 893 366 891 353 893 b 216 751 277 893 236 847 l 275 751 b 332 797 285 784 303 797 b 357 794 341 797 349 795 l 440 772 b 475 768 452 769 463 768 b 605 909 539 768 588 818 "},"+":{"x_min":168.78125,"x_max":965.03125,"ha":1157,"o":"m 510 827 l 510 470 l 168 470 l 168 358 l 510 358 l 510 0 l 623 0 l 623 358 l 965 358 l 965 470 l 623 470 l 623 827 l 510 827 "},"‚":{"x_min":82,"x_max":330,"ha":419,"o":"m 82 -202 l 166 -233 l 330 126 l 208 167 l 82 -202 "},"½":{"x_min":100.078125,"x_max":1175.8125,"ha":1289,"o":"m 226 429 l 317 429 l 317 979 l 138 979 l 100 908 l 226 908 l 226 429 m 292 -26 l 383 -26 l 973 1002 l 881 1002 l 292 -26 m 1175 72 l 943 72 l 1020 154 b 1174 406 1114 251 1174 320 b 983 561 1174 502 1102 561 b 779 397 858 561 779 497 l 874 397 b 975 483 880 450 919 483 b 1076 394 1038 483 1076 450 b 993 248 1076 354 1047 308 l 764 0 l 1175 0 l 1175 72 "},"Æ":{"x_min":-20,"x_max":1251,"ha":1265,"o":"m 883 993 l 434 993 l -20 0 l 146 0 l 258 255 l 645 255 l 737 0 l 1251 0 l 1197 144 l 840 144 l 721 470 l 1046 470 l 995 612 l 668 612 l 582 855 l 939 855 l 883 993 m 317 390 l 419 630 b 468 781 442 683 459 733 b 516 616 479 726 495 672 l 597 390 l 317 390 "},"Ë":{"x_min":111.609375,"x_max":654.703125,"ha":739,"o":"m 111 0 l 654 0 l 654 144 l 269 144 l 269 465 l 654 465 l 654 606 l 269 606 l 269 855 l 654 855 l 654 993 l 111 993 l 111 0 m 183 1201 b 264 1118 183 1154 219 1118 b 343 1201 310 1118 343 1152 b 264 1281 343 1245 307 1281 b 183 1201 220 1281 183 1244 m 426 1201 b 506 1118 426 1154 461 1118 b 585 1201 552 1118 585 1152 b 506 1281 585 1245 549 1281 b 426 1201 462 1281 426 1244 "},"'":{"x_min":57.171875,"x_max":166.0625,"ha":226,"o":"m 57 973 l 57 595 l 166 595 l 166 973 l 57 973 "},"Š":{"x_min":55.859375,"x_max":685.984375,"ha":763,"o":"m 55 198 b 363 -26 88 54 197 -26 b 685 280 564 -26 685 95 b 434 575 685 423 605 494 b 249 751 325 626 249 655 b 388 876 249 826 302 876 b 532 786 449 876 494 847 l 656 851 b 375 1015 619 955 520 1015 b 83 743 198 1015 83 902 b 351 440 83 593 178 526 b 524 269 452 390 524 366 b 370 122 524 180 465 122 b 182 258 270 122 205 169 l 55 198 m 177 1275 l 305 1090 l 443 1090 l 572 1275 l 490 1275 l 374 1168 l 258 1275 l 177 1275 "},"ª":{"x_min":39.46875,"x_max":519.9375,"ha":607,"o":"m 415 769 b 283 615 415 673 357 615 b 153 765 201 615 153 669 b 284 917 153 861 202 917 b 415 769 366 917 415 864 m 519 543 l 519 993 l 411 993 l 411 919 b 251 1008 386 976 329 1008 b 39 768 127 1008 39 914 b 255 525 39 615 123 525 b 411 601 321 525 372 550 l 411 543 l 519 543 "},"Œ":{"x_min":72.140625,"x_max":1459.109375,"ha":1563,"o":"m 935 993 l 933 845 b 582 1016 841 959 724 1016 b 221 863 445 1016 318 962 b 72 495 125 765 72 637 b 221 127 72 354 125 226 b 582 -23 318 29 445 -23 b 933 152 726 -23 850 38 l 935 0 l 1459 0 l 1459 144 l 1080 144 l 1080 469 l 1459 469 l 1459 611 l 1080 611 l 1080 855 l 1459 855 l 1459 993 l 935 993 m 931 495 b 828 233 931 395 895 304 b 582 125 762 162 675 125 b 336 233 490 125 402 162 b 234 495 269 304 234 395 b 336 759 234 597 269 688 b 582 868 402 830 490 868 b 828 759 673 868 762 830 b 931 495 895 688 931 597 "},"˛":{"x_min":231.390625,"x_max":449.171875,"ha":694,"o":"m 415 0 l 356 0 b 231 -181 273 -63 231 -122 b 385 -304 231 -266 281 -304 l 449 -304 l 449 -198 l 386 -198 b 328 -144 344 -198 328 -183 b 415 0 328 -94 357 -50 "},"ð":{"x_min":52.640625,"x_max":747.078125,"ha":817,"o":"m 574 551 b 390 624 519 599 458 624 b 154 534 296 624 218 595 b 52 303 89 473 52 391 b 153 70 52 215 88 131 b 398 -26 220 8 307 -26 b 747 359 609 -26 747 119 b 541 835 747 537 676 702 l 719 919 l 680 997 l 469 899 b 251 1047 412 946 338 994 l 179 938 b 335 838 233 908 286 877 l 176 763 l 215 684 l 409 776 b 574 551 474 724 530 648 m 594 299 b 399 105 594 192 507 105 b 205 299 290 105 205 192 b 399 494 205 408 289 494 b 594 299 508 494 594 408 "},"T":{"x_min":9.53125,"x_max":683.28125,"ha":707,"o":"m 426 855 l 683 855 l 683 993 l 9 993 l 9 855 l 268 855 l 268 0 l 426 0 l 426 855 "},"š":{"x_min":26.671875,"x_max":533.90625,"ha":592,"o":"m 26 116 b 275 -26 72 19 153 -26 b 533 179 441 -26 533 54 b 371 369 533 272 482 325 b 205 481 273 409 205 419 b 296 555 205 526 240 555 b 401 488 346 555 386 529 l 503 561 b 301 666 472 627 401 666 b 60 473 151 666 60 584 b 241 279 60 380 121 330 b 391 169 329 241 391 236 b 288 84 391 118 353 84 b 146 183 211 84 164 119 l 26 116 m 92 925 l 220 740 l 358 740 l 487 925 l 405 925 l 289 818 l 173 925 l 92 925 "},"Þ":{"x_min":111.609375,"x_max":692.8125,"ha":739,"o":"m 259 241 l 319 241 b 351 241 330 241 341 241 b 594 291 450 241 529 244 b 692 515 654 336 692 419 b 594 737 692 611 654 693 b 336 788 526 787 442 788 b 319 788 330 788 325 788 l 259 788 l 259 993 l 111 993 l 111 0 l 259 0 l 259 241 m 259 373 l 259 650 l 310 650 b 529 505 457 650 529 625 b 310 373 529 390 455 373 l 259 373 "},"j":{"x_min":87.109375,"x_max":268.140625,"ha":364,"o":"m 106 -302 l 250 -302 l 250 643 l 106 643 l 106 -302 m 87 920 b 178 827 87 870 127 827 b 268 920 228 827 268 868 b 178 1012 268 973 228 1012 b 87 920 127 1012 87 970 "},"1":{"x_min":157.890625,"x_max":503.609375,"ha":839,"o":"m 359 0 l 503 0 l 503 983 l 219 983 l 157 855 l 359 855 l 359 0 "},"›":{"x_min":53,"x_max":314,"ha":369,"o":"m 145 42 l 314 318 l 145 595 l 53 538 l 190 318 l 53 98 l 145 42 "},"ı":{"x_min":106.171875,"x_max":250.4375,"ha":364,"o":"m 106 0 l 250 0 l 250 643 l 106 643 l 106 0 "},"ä":{"x_min":53.078125,"x_max":692.8125,"ha":808,"o":"m 552 323 b 377 104 552 187 476 104 b 204 318 268 104 204 180 b 379 535 204 454 270 535 b 552 323 487 535 552 458 m 692 0 l 692 643 l 548 643 l 548 537 b 336 665 514 619 439 665 b 53 322 170 665 53 529 b 340 -26 53 103 164 -26 b 548 83 428 -26 496 10 l 548 0 l 692 0 m 201 851 b 281 768 201 804 236 768 b 360 851 328 768 360 803 b 281 932 360 896 325 932 b 201 851 238 932 201 894 m 443 851 b 524 768 443 804 479 768 b 602 851 570 768 602 803 b 524 932 602 896 567 932 b 443 851 480 932 443 894 "},"<":{"x_min":175.578125,"x_max":958.21875,"ha":1157,"o":"m 958 797 l 175 467 l 175 359 l 958 32 l 958 155 l 337 413 l 958 672 l 958 797 "},"£":{"x_min":49.671875,"x_max":804.3125,"ha":839,"o":"m 49 33 l 136 -34 b 282 36 183 11 232 36 b 605 -29 379 36 484 -29 b 804 90 689 -29 762 12 l 715 170 b 578 98 689 125 639 98 b 321 159 503 98 423 159 b 317 159 319 159 318 159 b 381 323 359 205 381 265 b 370 397 381 345 378 370 l 578 397 l 578 493 l 340 493 b 280 702 307 579 280 643 b 447 872 280 802 348 872 b 619 681 551 872 611 806 l 767 702 b 454 1002 751 897 640 1002 b 123 695 251 1002 123 870 b 183 493 123 627 143 559 l 57 493 l 57 397 l 224 397 b 255 280 244 356 255 319 b 224 159 255 240 244 201 b 49 33 157 154 101 112 "},"¹":{"x_min":104.8125,"x_max":332.109375,"ha":554,"o":"m 238 390 l 332 390 l 332 980 l 145 980 l 104 904 l 238 904 l 238 390 "},"t":{"x_min":23.140625,"x_max":387.921875,"ha":421,"o":"m 133 0 l 277 0 l 277 513 l 387 513 l 387 643 l 277 643 l 277 886 l 133 886 l 133 643 l 23 643 l 23 513 l 133 513 l 133 0 "},"¬":{"x_min":168.78125,"x_max":965.03125,"ha":1157,"o":"m 168 584 l 168 472 l 854 472 l 854 244 l 965 244 l 965 584 l 168 584 "},"ù":{"x_min":94.5,"x_max":703.96875,"ha":817,"o":"m 238 643 l 94 643 l 94 325 b 400 -26 94 83 180 -26 b 703 325 616 -26 703 84 l 703 643 l 559 643 l 559 280 b 399 105 559 159 516 105 b 238 280 282 105 238 159 l 238 643 m 493 740 l 366 925 l 217 925 l 411 740 l 493 740 "},"W":{"x_min":-4,"x_max":1282,"ha":1304,"o":"m -4 992 l 371 -39 l 589 524 b 635 666 607 570 621 617 b 683 527 647 623 664 576 l 905 -39 l 1282 992 l 1124 992 l 941 487 b 894 333 921 430 905 380 b 842 491 877 391 860 444 l 636 1031 l 441 501 b 387 334 435 484 416 430 b 336 491 372 387 355 438 l 152 992 l -4 992 "},"ï":{"x_min":-23.140625,"x_max":378.390625,"ha":364,"o":"m 106 0 l 250 0 l 250 643 l 106 643 l 106 0 m -23 851 b 57 768 -23 804 12 768 b 136 851 103 768 136 802 b 57 931 136 895 100 931 b -23 851 13 931 -23 894 m 219 851 b 299 768 219 804 254 768 b 378 851 345 768 378 802 b 299 931 378 895 343 931 b 219 851 255 931 219 894 "},">":{"x_min":176.28125,"x_max":958.921875,"ha":1157,"o":"m 176 797 l 176 672 l 796 413 l 176 155 l 176 32 l 958 359 l 958 467 l 176 797 "},"v":{"x_min":-9.5,"x_max":652,"ha":656,"o":"m 321 -39 l 652 642 l 495 642 l 358 319 b 321 202 341 280 329 241 b 285 319 306 262 294 301 l 148 642 l -9 642 l 321 -39 "},"û":{"x_min":94.46875,"x_max":704.53125,"ha":817,"o":"m 238 643 l 94 643 l 94 325 b 400 -26 94 83 180 -26 b 704 325 617 -26 704 84 l 704 643 l 560 643 l 560 280 b 399 105 560 159 516 105 b 238 280 282 105 238 159 l 238 643 m 202 740 l 283 740 l 399 847 l 515 740 l 597 740 l 468 925 l 330 925 l 202 740 "},"Ò":{"x_min":69.4375,"x_max":1109.03125,"ha":1203,"o":"m 1109 494 b 956 863 1109 634 1055 763 b 589 1015 857 962 729 1015 b 220 863 449 1015 319 962 b 69 494 121 763 69 636 b 220 126 69 352 121 225 b 589 -26 318 27 450 -26 b 956 126 728 -26 857 27 b 1109 494 1055 225 1109 352 m 944 494 b 839 231 944 394 907 302 b 589 123 771 161 684 123 b 337 231 493 123 405 161 b 234 494 269 302 234 394 b 337 758 234 594 269 687 b 589 866 405 829 495 866 b 839 758 683 866 772 829 b 944 494 907 687 944 594 m 683 1090 l 556 1275 l 407 1275 l 601 1090 l 683 1090 "},"&":{"x_min":40.484375,"x_max":905.265625,"ha":932,"o":"m 722 0 l 905 0 l 741 188 b 871 344 790 233 834 284 l 778 445 b 653 290 737 387 697 334 l 450 530 b 639 781 577 605 639 680 b 401 991 639 906 551 991 b 150 768 251 991 150 895 b 217 602 150 709 173 651 l 256 559 b 40 259 112 468 40 377 b 342 -23 40 97 160 -23 b 643 94 458 -23 552 13 l 722 0 m 554 200 b 349 106 483 137 415 106 b 191 263 258 106 191 177 b 316 433 191 334 236 380 l 341 450 l 554 200 m 379 633 l 330 693 b 299 770 310 716 299 743 b 398 868 299 827 338 868 b 490 772 451 868 490 829 b 415 654 490 723 465 684 l 379 633 "},"˝":{"x_min":203,"x_max":612,"ha":694,"o":"m 203 740 l 261 740 l 414 925 l 288 925 l 203 740 m 377 740 l 441 740 l 612 925 l 480 925 l 377 740 "},"Ð":{"x_min":0,"x_max":947.328125,"ha":1038,"o":"m 121 0 l 334 0 b 377 0 348 0 363 0 b 775 93 534 0 662 4 b 947 495 887 180 947 318 b 775 900 947 673 887 812 b 334 993 657 993 517 993 l 121 993 l 121 615 l 0 615 l 0 490 l 121 490 l 121 0 m 279 145 l 279 490 l 536 490 l 536 615 l 279 615 l 279 848 l 336 848 b 393 848 356 848 375 848 b 672 783 510 848 600 844 b 782 497 745 719 782 623 b 672 211 782 370 745 275 b 412 145 602 151 519 145 b 336 145 387 145 363 145 l 279 145 "},"I":{"x_min":114.328125,"x_max":272.21875,"ha":396,"o":"m 114 0 l 272 0 l 272 993 l 114 993 l 114 0 "},"G":{"x_min":69.78125,"x_max":1038.90625,"ha":1115,"o":"m 650 508 l 650 372 l 885 372 b 885 358 885 368 885 362 b 593 118 885 211 776 118 b 234 495 382 118 234 269 b 592 868 234 719 384 868 b 841 752 694 868 776 830 l 957 841 b 589 1015 863 958 743 1015 b 218 869 444 1015 313 963 b 69 494 120 772 69 644 b 212 118 69 347 120 213 b 589 -26 306 20 430 -26 b 1038 415 872 -26 1038 133 b 1036 508 1038 437 1037 468 l 650 508 "},"`":{"x_min":158,"x_max":434,"ha":694,"o":"m 434 740 l 307 925 l 158 925 l 352 740 l 434 740 "},"·":{"x_min":118.421875,"x_max":292.640625,"ha":419,"o":"m 118 488 b 205 400 118 440 156 400 b 292 488 254 400 292 440 b 205 577 292 538 254 577 b 118 488 156 577 118 538 "},"r":{"x_min":99.359375,"x_max":518.578125,"ha":511,"o":"m 243 540 l 243 644 l 99 644 l 99 0 l 243 0 l 243 282 b 378 538 243 456 276 538 b 466 511 411 538 439 531 l 518 636 b 400 665 480 656 441 665 b 243 540 323 665 274 625 "},"¿":{"x_min":127.9375,"x_max":597.53125,"ha":756,"o":"m 472 927 b 385 1015 472 976 434 1015 b 298 927 336 1015 298 976 b 385 838 298 877 336 838 b 472 927 432 838 472 879 m 481 233 b 366 97 481 147 438 97 b 254 201 300 97 254 141 b 382 330 254 265 302 291 b 589 576 515 395 589 450 b 372 776 589 690 500 776 b 160 566 236 776 160 700 b 160 552 160 562 160 556 l 279 552 b 372 658 280 620 313 658 b 461 573 423 658 461 618 b 315 440 461 511 405 486 b 127 206 193 379 127 329 b 366 -26 127 66 220 -26 b 597 208 506 -26 597 63 b 596 233 597 216 596 225 l 481 233 "},"ý":{"x_min":1,"x_max":663,"ha":654,"o":"m 207 -302 l 663 643 l 505 643 l 350 300 b 305 183 333 259 315 220 b 276 309 300 223 290 266 l 160 643 l 1 643 l 232 55 l 59 -302 l 207 -302 m 227 740 l 308 740 l 503 925 l 353 925 l 227 740 "},"x":{"x_min":-16,"x_max":632,"ha":629,"o":"m 143 0 l 257 168 b 308 256 265 180 283 208 b 357 169 318 226 337 198 l 474 0 l 632 0 l 395 344 l 599 643 l 441 643 l 354 511 b 309 431 337 484 322 459 b 265 509 295 462 280 487 l 177 643 l 18 643 l 222 345 l -16 0 l 143 0 "},"è":{"x_min":52.640625,"x_max":707,"ha":772,"o":"m 557 398 l 211 398 b 385 540 234 494 292 540 b 557 398 485 540 546 491 m 707 300 b 707 327 707 309 707 319 b 383 665 707 541 586 665 b 52 319 187 665 52 519 b 383 -26 52 109 181 -26 b 700 165 525 -26 629 36 l 578 234 b 380 108 532 145 473 108 b 202 300 275 108 209 179 l 707 300 m 477 740 l 350 925 l 201 925 l 395 740 l 477 740 "},"º":{"x_min":39.46875,"x_max":560.78125,"ha":613,"o":"m 39 768 b 117 595 39 701 66 641 b 299 525 166 550 231 525 b 484 595 370 525 434 550 b 560 768 533 641 560 700 b 484 937 560 833 533 891 b 299 1008 434 984 370 1008 b 117 938 231 1008 166 984 b 39 768 66 893 39 833 m 446 766 b 300 616 446 681 379 616 b 153 766 219 616 153 681 b 300 916 153 851 219 916 b 446 766 381 916 446 851 "},"Ø":{"x_min":69.234375,"x_max":1109.953125,"ha":1203,"o":"m 787 804 l 303 276 b 233 495 255 341 233 411 b 337 759 233 595 269 688 b 589 868 404 830 495 868 b 787 804 663 868 725 848 m 379 195 l 866 727 b 945 495 917 661 945 581 b 841 233 945 395 909 304 b 579 124 772 161 686 124 b 379 195 503 124 438 148 m 154 -50 l 274 81 b 589 -23 370 10 473 -23 b 957 127 728 -23 859 30 b 1109 495 1056 226 1109 355 b 975 844 1109 629 1066 741 l 1092 972 l 1006 1043 l 891 918 b 589 1016 792 983 694 1016 b 220 863 449 1016 318 962 b 69 495 120 765 69 636 b 194 156 69 365 108 255 l 71 23 l 154 -50 "},"÷":{"x_min":168.78125,"x_max":965.03125,"ha":1157,"o":"m 567 765 b 476 670 518 765 476 722 b 567 579 476 619 515 579 b 658 670 619 579 658 620 b 567 765 658 722 617 765 m 168 470 l 168 358 l 965 358 l 965 470 l 168 470 m 567 248 b 476 155 518 248 476 206 b 567 63 476 104 515 63 b 658 155 619 63 658 105 b 567 248 658 206 617 248 "},"h":{"x_min":99.359375,"x_max":707.78125,"ha":817,"o":"m 99 0 l 243 0 l 243 293 b 272 468 243 373 246 429 b 424 540 302 513 356 540 b 562 330 544 540 562 473 l 562 0 l 707 0 l 707 390 b 676 575 707 468 707 526 b 479 665 639 634 573 665 b 235 537 368 665 294 627 l 235 1051 l 99 1051 l 99 0 "},".":{"x_min":118.421875,"x_max":292.640625,"ha":419,"o":"m 118 75 b 205 -12 118 26 156 -12 b 292 75 254 -12 292 26 b 205 165 292 125 254 165 b 118 75 156 165 118 125 "},";":{"x_min":79,"x_max":367.5625,"ha":457,"o":"m 209 168 l 79 -209 l 166 -244 l 338 119 l 209 168 m 194 538 b 280 449 194 490 231 449 b 367 538 329 449 367 490 b 280 626 367 588 329 626 b 194 538 232 626 194 587 "},"f":{"x_min":9.53125,"x_max":431.46875,"ha":425,"o":"m 119 0 l 264 0 l 264 513 l 415 513 l 415 643 l 264 643 l 264 795 b 360 938 264 894 288 938 b 431 918 385 938 408 931 l 431 1051 b 333 1065 396 1061 363 1065 b 119 815 186 1065 119 984 l 119 643 l 9 643 l 9 513 l 119 513 l 119 0 "},"“":{"x_min":56,"x_max":546,"ha":614,"o":"m 546 985 l 461 1016 l 298 657 l 419 616 l 546 985 m 304 985 l 219 1016 l 56 657 l 178 616 l 304 985 "},"A":{"x_min":-20,"x_max":922,"ha":919,"o":"m 754 0 l 922 0 l 451 1032 l -20 0 l 146 0 l 259 255 l 644 255 l 754 0 m 317 390 l 416 616 b 452 729 427 643 440 679 b 489 616 465 679 478 643 l 588 390 l 317 390 "},"6":{"x_min":75.234375,"x_max":740.828125,"ha":839,"o":"m 314 603 l 596 978 l 475 1041 l 305 795 b 75 305 174 607 75 472 b 396 -26 75 108 201 -26 b 740 314 603 -26 740 109 b 441 635 740 504 612 635 b 314 603 399 635 356 623 m 226 304 b 401 503 226 422 298 503 b 587 304 518 503 587 428 b 400 107 587 183 517 107 b 226 304 299 107 226 183 "},"‘":{"x_min":82,"x_max":330,"ha":419,"o":"m 330 985 l 245 1016 l 82 657 l 203 616 l 330 985 "},"O":{"x_min":69.421875,"x_max":1109.3125,"ha":1203,"o":"m 1109 494 b 956 863 1109 634 1056 763 b 589 1015 857 962 729 1015 b 220 863 449 1015 319 962 b 69 494 121 763 69 636 b 220 126 69 352 121 225 b 589 -26 318 27 450 -26 b 956 126 728 -26 857 27 b 1109 494 1056 225 1109 352 m 944 494 b 839 231 944 394 907 302 b 589 123 771 161 684 123 b 337 231 494 123 405 161 b 234 494 269 302 234 394 b 337 758 234 594 269 687 b 589 866 405 829 495 866 b 839 758 683 866 773 829 b 944 494 907 687 944 594 "},"n":{"x_min":99.359375,"x_max":707.78125,"ha":817,"o":"m 99 0 l 243 0 l 243 293 b 272 468 243 373 246 429 b 424 540 302 513 356 540 b 562 330 544 540 562 473 l 562 0 l 707 0 l 707 390 b 676 575 707 468 707 526 b 479 665 639 634 573 665 b 235 537 368 665 294 627 l 235 643 l 99 643 l 99 0 "},"3":{"x_min":62.609375,"x_max":714.578125,"ha":839,"o":"m 62 265 b 378 -26 68 86 191 -26 b 714 261 589 -26 714 88 b 525 518 714 406 647 495 b 692 738 631 534 692 618 b 402 1002 692 900 582 1002 b 102 740 216 1002 111 908 l 245 740 b 398 873 247 825 303 873 b 544 734 487 873 544 819 b 370 588 544 637 484 588 b 341 590 360 588 351 590 l 341 459 b 371 461 352 459 362 461 b 568 281 502 461 568 401 b 383 106 568 169 502 106 b 213 256 279 106 213 166 b 213 265 213 259 213 262 l 62 265 "},"9":{"x_min":69.1875,"x_max":736.140625,"ha":839,"o":"m 495 373 l 214 0 l 334 -62 l 506 183 b 736 672 636 371 736 505 b 413 1002 736 869 608 1002 b 69 662 206 1002 69 866 b 368 343 69 472 197 343 b 495 373 410 343 453 352 m 583 673 b 408 473 583 555 511 473 b 223 673 291 473 223 550 b 410 870 223 794 293 870 b 583 673 511 870 583 794 "},"l":{"x_min":106.171875,"x_max":250.4375,"ha":364,"o":"m 106 0 l 250 0 l 250 1051 l 106 1051 l 106 0 "},"¤":{"x_min":50.046875,"x_max":777.09375,"ha":842,"o":"m 111 969 l 50 906 l 184 767 b 131 599 149 719 131 662 b 184 431 131 537 149 480 l 50 293 l 111 230 l 246 369 b 413 313 295 331 350 313 b 579 369 476 313 529 331 l 714 230 l 777 293 l 640 431 b 694 599 676 480 694 537 b 640 767 694 662 676 719 l 777 906 l 714 969 l 579 831 b 412 887 530 869 474 887 b 246 831 349 887 295 869 l 111 969 m 413 796 b 606 599 519 796 606 706 b 413 404 606 491 521 404 b 220 599 306 404 220 491 b 413 796 220 706 307 796 "},"4":{"x_min":17.6875,"x_max":747.25,"ha":839,"o":"m 484 0 l 628 0 l 628 201 l 747 201 l 747 313 l 628 313 l 628 1002 l 583 1002 l 17 201 l 484 201 l 484 0 m 488 670 b 484 572 484 613 484 580 l 484 313 l 240 313 l 488 670 "},"p":{"x_min":99.359375,"x_max":739.078125,"ha":808,"o":"m 99 -302 l 243 -302 l 243 84 b 451 -25 295 10 363 -25 b 739 322 627 -25 739 103 b 457 665 739 529 623 665 b 243 537 353 665 277 619 l 243 643 l 99 643 l 99 -302 m 239 324 b 412 535 239 458 304 535 b 588 318 521 535 588 454 b 416 104 588 181 525 104 b 239 324 314 104 239 186 "},"‡":{"x_min":54.4375,"x_max":669.671875,"ha":739,"o":"m 294 -302 l 430 -302 l 430 30 l 669 30 l 669 152 l 430 152 l 430 594 l 669 594 l 669 716 l 430 716 l 430 993 l 294 993 l 294 716 l 54 716 l 54 594 l 294 594 l 294 152 l 54 152 l 54 30 l 294 30 l 294 -302 "},"à":{"x_min":53.578125,"x_max":693,"ha":808,"o":"m 552 323 b 377 104 552 187 476 104 b 204 318 268 104 204 180 b 380 535 204 454 271 535 b 552 323 487 535 552 458 m 693 0 l 693 643 l 548 643 l 548 537 b 336 665 514 619 439 665 b 53 322 170 665 53 529 b 340 -26 53 103 165 -26 b 548 83 429 -26 497 10 l 548 0 l 693 0 m 497 740 l 370 925 l 221 925 l 415 740 l 497 740 "},"Ü":{"x_min":107.53125,"x_max":906.5,"ha":1033,"o":"m 107 993 l 107 375 b 506 -26 107 106 238 -26 b 906 375 774 -26 906 106 l 906 993 l 748 993 l 748 390 b 506 120 748 211 666 120 b 264 390 345 120 264 211 l 264 993 l 107 993 m 304 1201 b 385 1118 304 1154 340 1118 b 464 1201 431 1118 464 1152 b 385 1281 464 1245 428 1281 b 304 1201 341 1281 304 1244 m 547 1201 b 627 1118 547 1154 582 1118 b 706 1201 673 1118 706 1152 b 627 1281 706 1245 671 1281 b 547 1201 583 1281 547 1244 "},"ó":{"x_min":52.828125,"x_max":746.6875,"ha":817,"o":"m 52 320 b 154 75 52 226 88 141 b 398 -26 220 9 307 -26 b 646 76 492 -26 578 9 b 746 320 711 140 746 225 b 644 563 746 413 709 498 b 398 665 578 630 492 665 b 154 565 307 665 220 630 b 52 320 88 500 52 413 m 594 319 b 399 105 594 198 505 105 b 205 319 292 105 205 198 b 399 533 205 440 292 533 b 594 319 507 533 594 440 m 306 740 l 387 740 l 582 925 l 432 925 l 306 740 "}}}
